<svg width="208" height="49" viewBox="0 0 208 49" fill="none" xmlns="http://www.w3.org/2000/svg">
<path d="M59.0497 39.1095H52.571V15.2361H59.0497V36.8095V39.1095Z" fill="currentColor"/>
<path d="M55.8127 12.5926C53.7421 12.5926 52.1248 10.9913 52.1248 8.95262C52.1248 6.96463 53.7767 5.34991 55.8127 5.34991C57.9087 5.34991 59.5474 6.93129 59.5474 8.95262C59.5474 10.9593 57.8754 12.5926 55.8127 12.5926Z" fill="currentColor"/>
<path d="M123.448 39.6043C119.79 39.6043 116.746 38.3416 114.648 35.9523C112.738 33.7803 111.68 30.7043 111.68 27.299C111.68 23.7937 112.923 20.5923 115.195 18.2803C117.454 15.9697 120.599 14.699 124.036 14.699C126.732 14.699 128.91 15.291 130.984 16.455L130.765 21.7937C129.081 20.523 126.937 19.7963 124.729 19.7963C120.924 19.7963 118.161 22.827 118.161 26.999C118.161 30.351 119.867 34.2617 124.68 34.2617C126.987 34.2617 128.964 33.327 130.323 32.5377L132.021 37.1457C130.297 38.3257 126.878 39.6043 123.448 39.6043Z" fill="currentColor"/>
<path d="M30.8573 39.1098H23.9867L20.784 30.9724H9.57866L6.57334 39.1098H0L12.8413 5.91772H17.5653L30.8573 39.1098ZM11.6173 25.5377H18.704L16.2213 18.4751C15.8227 17.3871 15.4973 16.3711 15.2453 15.4498C15.0187 16.2978 14.688 17.2404 14.2867 18.3737L11.6173 25.5377Z" fill="currentColor"/>
<path d="M50.6149 15.2357H44.1309L38.3616 30.709L32.6882 15.2357H26.1562L34.8776 36.5103C35.5363 38.1637 36.5362 39.1116 38.4296 39.1116H40.6829L50.6149 15.2357Z" fill="currentColor"/>
<path d="M70.1803 39.6044C65.5163 39.6044 62.2576 36.4058 62.2576 31.8298C62.2576 27.0098 65.9189 24.1231 72.2949 23.9071L76.1616 23.7699V23.4498C76.1616 20.4285 73.8202 19.7951 71.8589 19.7951C69.9043 19.7951 68.0029 20.3818 65.8963 21.6498L63.7003 17.4472C66.3003 15.7179 69.5816 14.6992 73.1896 14.6992C79.6149 14.6992 82.7403 17.5618 82.7403 23.4498V34.3658C82.7403 36.4658 82.9217 37.8778 83.2896 39.1125H79.5496C77.9563 39.1125 77.3363 38.4738 76.8616 37.2031C74.9563 38.8151 72.7656 39.6044 70.1803 39.6044ZM76.1616 28.4258L73.0989 28.5165C69.1923 28.6337 68.7429 30.2125 68.7429 31.3845C68.7429 33.2485 70.0549 34.3605 72.2523 34.3605C73.7949 34.3605 75.1122 33.9125 76.1616 33.0325V28.4258Z" fill="currentColor"/>
<path d="M141.331 39.6044C136.67 39.6044 133.406 36.4058 133.406 31.8298C133.406 27.0098 137.067 24.1231 143.449 23.9071L147.313 23.7699V23.4498C147.313 20.4285 144.971 19.7951 143.013 19.7951C141.055 19.7951 139.154 20.3818 137.047 21.6498L134.854 17.4472C137.449 15.7179 140.734 14.6992 144.343 14.6992C150.769 14.6992 153.894 17.5618 153.894 23.4498V34.3658C153.894 36.4658 154.075 37.8778 154.441 39.1125H150.701C149.107 39.1125 148.487 38.4738 148.013 37.2031C146.107 38.8151 143.917 39.6044 141.331 39.6044ZM147.313 28.4258L144.25 28.5165C140.343 28.6337 139.894 30.2125 139.894 31.3845C139.894 33.2485 141.203 34.3605 143.403 34.3605C144.951 34.3605 146.261 33.9125 147.313 33.0325V28.4258Z" fill="currentColor"/>
<path d="M108.8 39.1095H102.316V25.1268C102.316 21.8161 101.333 20.3375 99.1437 20.3375C97.4397 20.3375 95.5971 21.0948 93.5077 22.6602V39.1095H87.0291V15.2362H89.5078C91.3957 15.2362 92.5757 15.9601 93.1118 17.4388L93.1458 17.5643C95.9005 15.583 98.3871 14.699 101.16 14.699C104.854 14.699 108.799 16.9736 108.799 23.3537L108.8 39.1095Z" fill="currentColor"/>
<path d="M198.162 38.4194C197.364 35.9514 194.85 34.0301 186.008 33.3634C187.422 35.0021 188.907 36.5648 190.467 38.0314H194.956C196.818 38.0314 197.636 38.1875 198.162 38.4194Z" fill="currentColor"/>
<path d="M164.237 12.9102C163.825 22.4782 168.951 32.1182 185.847 33.3475L186.013 33.3626C177.431 23.3933 171.647 10.628 169.325 0C169.325 0 164.612 4.15819 164.237 12.9102Z" fill="currentColor"/>
<path d="M190.467 38.0314C183.811 38.0314 172.316 38.034 172.316 38.034C172.554 38.5993 173.391 38.9953 175.281 39.1073C186.615 39.7793 188.221 48.674 204.44 48.674C205.868 48.674 206.756 48.5913 207.649 48.422C201.243 46.4513 195.48 42.7447 190.467 38.0314Z" fill="currentColor"/>
</svg>
