<svg width="368" height="120" viewBox="0 0 368 120" fill="none" xmlns="http://www.w3.org/2000/svg">
<path fill-rule="evenodd" clip-rule="evenodd" d="M87.5219 13.1072C98.2513 13.1072 106.948 20.1489 106.948 28.8359C106.948 37.5226 98.2513 44.5704 87.5219 44.5704C79.3139 44.5704 72.3099 40.4282 69.4728 34.6112C68.2303 39.9787 65.4839 44.8879 61.5508 48.7719C67.75 54.2573 76.4527 57.6479 86.1449 57.6479C104.951 57.6479 120.193 44.7361 120.193 28.8122C120.193 12.8882 104.951 0 86.1449 0C76.4707 0 67.75 3.42029 61.5508 8.9058C65.4839 12.7897 68.2303 17.6989 69.4728 23.0664C72.3099 17.2375 79.3139 13.1072 87.5219 13.1072ZM106.948 90.4782C106.948 81.7914 98.2513 74.7497 87.5219 74.7497C79.3139 74.7497 72.3099 78.892 69.4728 84.6495C68.2303 79.2822 65.4839 74.373 61.5508 70.489C67.75 65.0331 76.4707 61.6128 86.1449 61.6128C104.951 61.6128 120.193 74.5249 120.193 90.4487C120.193 106.373 104.951 119.285 86.1449 119.285C76.4527 119.285 67.75 115.894 61.5508 110.408C65.4853 106.525 68.2317 101.616 69.4728 96.2479C72.3099 102.065 79.3139 106.207 87.5219 106.207C98.2513 106.207 106.948 99.1651 106.948 90.4782ZM13.2508 90.484C13.2508 99.171 21.9417 106.213 32.6708 106.213V106.266C40.879 106.266 47.8769 102.136 50.7201 96.3129C51.9636 101.679 54.7121 106.587 58.648 110.468C52.4488 115.923 43.7222 119.344 34.0539 119.344C15.2476 119.344 0 106.432 0 90.5079C0 74.5838 15.2476 61.672 34.0539 61.672C43.7461 61.672 52.4488 65.0628 58.648 70.5482C54.7121 74.4287 51.9636 79.336 50.7201 84.7028C47.8769 78.8917 40.879 74.7495 32.6708 74.7495C21.9475 74.7495 13.2508 81.7973 13.2508 90.484ZM13.2508 28.8436C13.2508 37.5305 21.9417 44.5723 32.6708 44.5723C40.8788 44.5723 47.8769 40.43 50.7321 34.6428C51.9755 40.0094 54.724 44.9169 58.6599 48.7974C52.4607 54.2533 43.7342 57.6736 34.0658 57.6736C15.2476 57.6736 0 44.7971 0 28.8733C0 12.9493 15.2476 0.0374098 34.0539 0.0374098C43.7461 0.0374098 52.4488 3.42813 58.648 8.91362C54.7121 12.7941 51.9634 17.7015 50.7201 23.0683C47.8769 17.2572 40.8788 13.1151 32.6708 13.1151C21.9475 13.1151 13.2508 20.1569 13.2508 28.8436Z" fill="currentColor"/>
<path d="M154.509 40.2447C152.6 40.2569 150.709 39.8949 148.941 39.1797C147.274 38.5169 145.754 37.5336 144.471 36.2861C143.209 35.0342 142.21 33.5457 141.532 31.9071C140.805 30.1793 140.436 28.3237 140.447 26.4511C140.419 23.9938 141.05 21.5733 142.277 19.4388C143.47 17.3594 145.214 15.6445 147.32 14.48C149.51 13.2838 151.974 12.672 154.473 12.7047C156.836 12.6818 159.169 13.2323 161.268 14.3085C163.279 15.3298 164.995 16.8405 166.257 18.6993L162.294 21.1254C161.446 19.8974 160.306 18.897 158.973 18.214C157.582 17.5035 156.037 17.1399 154.473 17.1549C153.24 17.1219 152.012 17.3414 150.868 17.7995C149.723 18.2576 148.686 18.9445 147.821 19.8176C146.945 20.6896 146.257 21.7295 145.799 22.8741C145.341 24.0186 145.122 25.2436 145.156 26.4747C145.123 27.7086 145.343 28.9362 145.803 30.0826C146.263 31.2293 146.954 32.2709 147.833 33.1438C148.694 34.0202 149.728 34.7101 150.871 35.1703C152.014 35.6308 153.24 35.8514 154.473 35.8184C156.038 35.8374 157.583 35.4735 158.973 34.7593C160.306 34.0763 161.446 33.0759 162.294 31.8479L166.257 34.274C165.005 36.1256 163.301 37.6321 161.304 38.6531C159.205 39.7319 156.872 40.2826 154.509 40.2566" fill="currentColor"/>
<path d="M186.608 12.4563L181.714 17.7819H177.124L181.094 12.4563H186.608ZM179.073 36.061C179.884 36.0819 180.69 35.9349 181.44 35.6292C182.191 35.3236 182.869 34.866 183.431 34.2858C184 33.7121 184.448 33.0301 184.746 32.2807C185.044 31.5313 185.186 30.73 185.165 29.9247C185.187 29.1166 185.045 28.3123 184.747 27.5599C184.449 26.8077 184.001 26.1226 183.431 25.5457C182.868 24.9662 182.19 24.509 181.44 24.2032C180.69 23.8977 179.884 23.7503 179.073 23.7704C178.258 23.7521 177.447 23.9002 176.691 24.2056C175.936 24.5111 175.251 24.9671 174.68 25.5457C174.105 26.1201 173.653 26.8042 173.352 27.5568C173.051 28.3095 172.907 29.115 172.928 29.9247C172.907 30.7314 173.052 31.5341 173.353 32.2838C173.654 33.0336 174.106 33.7147 174.68 34.2858C175.25 34.8662 175.934 35.3234 176.69 35.6289C177.446 35.9345 178.257 36.0816 179.073 36.061ZM185.165 20.0839H189.528V39.7714H185.165V36.9487C184.355 38.0071 183.303 38.8583 182.095 39.4317C180.887 40.0049 179.559 40.2836 178.221 40.2447C176.464 40.2663 174.735 39.7988 173.232 38.8955C171.744 38.0057 170.531 36.726 169.727 35.197C168.875 33.574 168.443 31.7665 168.469 29.9364C168.444 28.1085 168.876 26.303 169.727 24.6817C170.529 23.1518 171.742 21.8718 173.232 20.9835C174.735 20.0801 176.464 19.6127 178.221 19.6342C179.558 19.5916 180.886 19.867 182.093 20.4374C183.301 21.0076 184.355 21.8561 185.165 22.9125V20.0839Z" fill="currentColor"/>
<path d="M217.556 19.634C218.546 19.5872 219.535 19.7421 220.463 20.0893C221.391 20.4363 222.237 20.9681 222.95 21.6519C223.634 22.3571 224.166 23.1928 224.514 24.1083C224.863 25.0238 225.02 26.0001 224.977 26.9776V39.7712H220.637V28.2796C220.666 27.6855 220.576 27.092 220.371 26.5333C220.166 25.9743 219.852 25.4617 219.445 25.0249C219.029 24.612 218.53 24.2898 217.981 24.079C217.432 23.868 216.844 23.773 216.256 23.7999C215.628 23.7672 215 23.86 214.409 24.0736C213.818 24.2873 213.277 24.6167 212.817 25.0427C212.383 25.4734 212.043 25.9884 211.82 26.5557C211.596 27.1229 211.493 27.73 211.517 28.3387V39.7712H207.172V28.2796C207.203 27.6853 207.114 27.091 206.909 26.5321C206.704 25.9729 206.388 25.4603 205.98 25.0249C205.558 24.6087 205.054 24.2847 204.498 24.0736C203.943 23.8628 203.349 23.7695 202.755 23.7999C202.139 23.7746 201.524 23.8715 200.945 24.0849C200.367 24.2982 199.837 24.6239 199.387 25.0427C198.95 25.4734 198.608 25.9903 198.383 26.5599C198.158 27.1294 198.056 27.7393 198.082 28.3504V39.7712H193.719V20.1075H198.082V22.4034C198.815 21.4977 199.751 20.7753 200.817 20.2945C201.882 19.8135 203.046 19.5872 204.215 19.634C205.545 19.6059 206.859 19.9199 208.03 20.5453C209.112 21.1367 209.999 22.0239 210.587 23.1018C212.177 20.79 214.5 19.634 217.556 19.634Z" fill="currentColor"/>
<path d="M238.358 36.061C239.17 36.0814 239.974 35.9342 240.722 35.6284C241.473 35.3229 242.148 34.8655 242.71 34.2857C243.285 33.7162 243.738 33.0375 244.042 32.2903C244.346 31.5428 244.496 30.7424 244.48 29.9364C244.501 29.1278 244.358 28.3235 244.059 27.5713C243.759 26.8189 243.311 26.1341 242.74 25.5576C242.179 24.9785 241.501 24.5218 240.753 24.2163C240.002 23.9107 239.198 23.7629 238.389 23.7823C237.573 23.764 236.761 23.9121 236.006 24.2175C235.251 24.5228 234.566 24.979 233.995 25.5576C233.413 26.1282 232.955 26.8109 232.646 27.5638C232.34 28.3169 232.19 29.1241 232.207 29.9364C232.188 30.7461 232.338 31.5509 232.646 32.3013C232.952 33.0513 233.413 33.7308 233.995 34.2976C234.566 34.8786 235.249 35.3362 236.004 35.6417C236.761 35.9473 237.573 36.094 238.389 36.0729L238.358 36.061ZM244.48 20.0958H248.843V39.7712H244.48V36.9487C243.671 38.0071 242.616 38.8582 241.407 39.4317C240.198 40.0049 238.87 40.2835 237.531 40.2447C235.772 40.2643 234.044 39.7971 232.541 38.8954C231.056 38.0036 229.846 36.7243 229.042 35.197C228.189 33.5745 227.754 31.7669 227.779 29.9364C227.755 28.108 228.189 26.3025 229.042 24.6816C229.844 23.1532 231.055 21.8736 232.541 20.9832C234.044 20.0817 235.772 19.6145 237.531 19.6342C238.868 19.5916 240.196 19.867 241.405 20.4374C242.614 21.0075 243.668 21.8561 244.48 22.9124V20.0958Z" fill="currentColor"/>
<path d="M263.554 19.7821H264.3V24.232H263.554C262.731 24.1852 261.906 24.3036 261.127 24.5801C260.351 24.8567 259.638 25.2855 259.03 25.8416C258.471 26.419 258.039 27.1038 257.756 27.8537C257.475 28.6038 257.351 29.4032 257.391 30.2027V39.7714H253.028V20.1075H257.391V22.9894C258.069 21.989 258.988 21.172 260.063 20.6121C261.141 20.0523 262.341 19.7671 263.554 19.7821Z" fill="currentColor"/>
<path d="M275.596 36.061C276.407 36.0818 277.212 35.9349 277.962 35.6291C278.713 35.3236 279.391 34.8659 279.954 34.2857C280.522 33.712 280.971 33.03 281.268 32.2807C281.565 31.5313 281.708 30.73 281.687 29.9247C281.71 29.1164 281.568 28.3122 281.268 27.5598C280.971 26.8076 280.525 26.1226 279.954 25.5456C279.391 24.9661 278.713 24.509 277.962 24.2032C277.212 23.8976 276.407 23.7502 275.596 23.7704C274.78 23.7521 273.969 23.9002 273.213 24.2055C272.458 24.5108 271.773 24.9671 271.202 25.5456C270.627 26.12 270.176 26.8041 269.874 27.5568C269.573 28.3094 269.43 29.115 269.451 29.9247C269.43 30.7314 269.575 31.5341 269.877 32.2837C270.176 33.0336 270.627 33.7146 271.202 34.2857C271.773 34.8662 272.456 35.3233 273.213 35.6289C273.969 35.9344 274.78 36.0814 275.596 36.061ZM281.687 20.0838H286.05V39.7714H281.687V36.9487C280.878 38.0071 279.826 38.8582 278.617 39.4314C277.41 40.0049 276.082 40.2835 274.742 40.2447C272.987 40.2662 271.259 39.7988 269.755 38.8954C268.268 38.0024 267.057 36.7236 266.25 35.197C265.397 33.574 264.967 31.7664 264.992 29.9364C264.967 28.1085 265.399 26.303 266.25 24.6816C267.055 23.1529 268.266 21.8734 269.755 20.9834C271.259 20.0799 272.987 19.6126 274.742 19.6342C276.08 19.5916 277.408 19.867 278.617 20.4374C279.823 21.0075 280.878 21.8561 281.687 22.9124V20.0838Z" fill="currentColor"/>
<path d="M150.98 72.004C151.791 72.0234 152.596 71.8757 153.347 71.5702C154.097 71.2644 154.774 70.8077 155.338 70.2287C155.907 69.6545 156.354 68.9725 156.652 68.2232C156.95 67.474 157.093 66.6729 157.072 65.8674C157.094 65.0593 156.952 64.255 156.654 63.5025C156.356 62.7501 155.908 62.0653 155.338 61.4886C154.775 60.9086 154.097 60.4512 153.347 60.1457C152.597 59.8401 151.791 59.6927 150.98 59.7133C150.164 59.6923 149.353 59.8389 148.597 60.1445C147.841 60.4501 147.156 60.9077 146.587 61.4886C146.011 62.0625 145.559 62.7466 145.258 63.4995C144.957 64.2522 144.813 65.0579 144.835 65.8674C144.815 66.6743 144.959 67.4768 145.261 68.2264C145.562 68.976 146.013 69.6573 146.587 70.2287C147.158 70.8073 147.843 71.2635 148.598 71.5688C149.354 71.8741 150.165 72.0222 150.98 72.004ZM157.072 47.9318H161.435V75.7438H157.072V72.9152C156.262 73.9737 155.21 74.8248 154.002 75.3983C152.794 75.9715 151.466 76.2501 150.128 76.2113C148.37 76.2309 146.641 75.7661 145.133 74.8681C143.648 73.9725 142.439 72.6918 141.634 71.1636C140.78 69.5434 140.345 67.7375 140.37 65.9091C140.346 64.0786 140.78 62.271 141.634 60.6482C142.438 59.1209 143.648 57.8419 145.133 56.95C146.639 56.0472 148.369 55.5799 150.128 55.6008C151.465 55.5582 152.793 55.8335 154.001 56.4039C155.208 56.9741 156.262 57.8227 157.072 58.879V47.9318Z" fill="currentColor"/>
<path d="M174.656 59.4766C173.319 59.4518 172.018 59.9007 170.984 60.7428C169.932 61.5911 169.193 62.7635 168.886 64.0744H180.444C180.152 62.7616 179.418 61.5864 178.364 60.7428C177.316 59.901 176.004 59.4525 174.656 59.4766ZM185.093 65.9208C185.093 66.4888 185.053 67.0562 184.974 67.6189H168.922C169.244 68.9791 170.04 70.1821 171.169 71.0155C172.366 71.8826 173.819 72.3301 175.3 72.2878C176.498 72.2976 177.683 72.0344 178.763 71.5185C179.737 71.0768 180.591 70.4116 181.255 69.5776L184.199 72.0807C183.157 73.3759 181.821 74.4079 180.301 75.0927C178.698 75.8271 176.952 76.201 175.187 76.1874C173.749 76.2352 172.317 75.9979 170.974 75.49C169.63 74.9818 168.401 74.2133 167.36 73.2288C166.344 72.2826 165.54 71.1341 165.002 69.8586C164.464 68.5828 164.203 67.2087 164.237 65.826C164.213 64.0002 164.685 62.2017 165.602 60.6185C166.496 59.0657 167.801 57.7848 169.375 56.9142C171.002 56.0177 172.837 55.5568 174.698 55.5769C176.074 55.5392 177.443 55.7823 178.721 56.2912C179.998 56.8001 181.157 57.5642 182.125 58.5356C183.104 59.5002 183.873 60.6536 184.386 61.9247C184.899 63.1958 185.143 64.558 185.105 65.9266" fill="currentColor"/>
<path d="M210.29 76.1874C208.381 76.1995 206.49 75.8376 204.722 75.1221C203.056 74.4596 201.537 73.4783 200.252 72.2346C198.989 70.9806 197.991 69.49 197.313 67.8497C196.586 66.124 196.217 64.2703 196.229 62.3996C196.199 59.9395 196.833 57.5166 198.064 55.3815C199.256 53.299 201.006 51.5848 203.119 50.4285C205.307 49.2295 207.773 48.6175 210.272 48.6535C212.634 48.6284 214.967 49.1771 217.067 50.2512C219.081 51.2685 220.804 52.7747 222.074 54.63L218.11 57.062C217.265 55.8328 216.124 54.8321 214.79 54.1506C213.401 53.4345 211.855 53.0685 210.29 53.0856C209.057 53.0531 207.831 53.2728 206.688 53.7309C205.545 54.189 204.508 54.8759 203.644 55.7483C202.766 56.6187 202.076 57.6572 201.616 58.8008C201.156 59.9442 200.935 61.1687 200.967 62.3996C200.934 63.6333 201.154 64.8609 201.615 66.0075C202.075 67.1539 202.765 68.1955 203.644 69.0686C204.507 69.9425 205.541 70.6308 206.684 71.0908C207.826 71.551 209.052 71.773 210.284 71.7433C211.849 71.7604 213.395 71.3947 214.784 70.6783C216.118 69.9968 217.259 68.9961 218.104 67.7669L222.068 70.1989C220.806 72.0559 219.089 73.5647 217.079 74.5838C214.98 75.6626 212.647 76.2133 210.284 76.1874" fill="currentColor"/>
<path d="M229.627 70.2462C230.197 70.8241 230.88 71.2799 231.636 71.5852C232.389 71.8905 233.2 72.0391 234.014 72.0215C234.823 72.0416 235.629 71.8942 236.378 71.5885C237.126 71.2829 237.804 70.8258 238.365 70.2462C238.936 69.6735 239.385 68.9917 239.684 68.2424C239.983 67.493 240.126 66.691 240.105 65.8852C240.128 65.0764 239.985 64.2716 239.686 63.5189C239.387 62.7665 238.938 62.0817 238.365 61.5062C237.804 60.9259 237.128 60.4681 236.378 60.1625C235.629 59.8567 234.823 59.7098 234.014 59.7309C233.2 59.7136 232.389 59.8619 231.636 60.1674C230.88 60.4728 230.197 60.9283 229.627 61.5062C229.046 62.0768 228.588 62.7588 228.28 63.5105C227.973 64.2622 227.823 65.068 227.838 65.8794C227.822 66.6886 227.972 67.493 228.28 68.2428C228.587 68.9927 229.045 69.6723 229.627 70.2404V70.2462ZM234.014 76.158C232.616 76.1966 231.223 75.9544 229.922 75.4458C228.62 74.9374 227.435 74.1733 226.438 73.199C225.45 72.2517 224.671 71.1119 224.149 69.8513C223.627 68.5905 223.373 67.2361 223.404 65.8733C223.37 64.5067 223.622 63.1479 224.145 61.8828C224.667 60.6178 225.448 59.474 226.438 58.5239C227.435 57.5497 228.62 56.7855 229.922 56.2772C231.223 55.7688 232.616 55.5266 234.014 55.565C235.898 55.5427 237.757 56.0076 239.408 56.9142C241.003 57.7806 242.326 59.0639 243.236 60.6246C244.164 62.2188 244.641 64.032 244.617 65.8733C244.641 67.7127 244.161 69.5238 243.236 71.1161C242.328 72.6794 241.005 73.9634 239.408 74.8265C237.757 75.7331 235.898 76.198 234.014 76.1757" fill="currentColor"/>
<path d="M271.196 55.5768C272.187 55.5296 273.178 55.6835 274.107 56.0295C275.035 56.3753 275.881 56.906 276.597 57.5886C277.28 58.295 277.81 59.1309 278.156 60.0464C278.505 60.9617 278.661 61.9373 278.617 62.9145V75.6904H274.284V64.2282C274.315 63.6332 274.224 63.0385 274.02 62.4784C273.814 61.9186 273.499 61.405 273.092 60.9677C272.676 60.5548 272.178 60.2326 271.628 60.0216C271.079 59.8108 270.492 59.7158 269.903 59.7427C269.281 59.7161 268.656 59.8136 268.072 60.0303C267.487 60.2467 266.954 60.5775 266.501 61.0031C266.066 61.4329 265.724 61.948 265.5 62.5154C265.278 63.0827 265.175 63.6903 265.201 64.2991V75.7199H260.854V64.2282C260.887 63.6332 260.795 63.0381 260.592 62.478C260.386 61.9178 260.071 61.4043 259.664 60.9677C259.245 60.5546 258.745 60.2324 258.195 60.0216C257.646 59.8106 257.057 59.7156 256.467 59.7427C255.848 59.7163 255.228 59.8136 254.646 60.0291C254.066 60.2446 253.533 60.5738 253.082 60.9972C252.645 61.4272 252.306 61.9431 252.081 62.5119C251.857 63.0804 251.756 63.6892 251.782 64.2991V75.7199H247.414V56.0501H251.782V58.3462C252.514 57.4398 253.449 56.7169 254.513 56.2359C255.579 55.7549 256.741 55.5291 257.91 55.5768C259.241 55.5506 260.555 55.8665 261.726 56.4939C262.806 57.0845 263.697 57.9693 264.289 59.0444C265.879 56.7366 268.198 55.5808 271.249 55.5768" fill="currentColor"/>
<path d="M291.774 59.4765C290.436 59.4536 289.136 59.9023 288.103 60.7427C287.053 61.5932 286.317 62.7648 286.01 64.0743H297.561C297.276 62.7606 296.544 61.5845 295.487 60.7427C294.437 59.9 293.123 59.4515 291.774 59.4765ZM302.212 65.9205C302.212 66.4886 302.174 67.0561 302.097 67.6188H286.045C286.363 68.9809 287.158 70.1858 288.292 71.0155C289.49 71.8825 290.942 72.3301 292.424 72.2877C293.621 72.2976 294.807 72.0344 295.887 71.5185C296.859 71.0768 297.715 70.4114 298.379 69.5775L301.323 72.0807C300.28 73.3759 298.945 74.4079 297.425 75.0927C295.821 75.8266 294.075 76.2003 292.309 76.1874C290.871 76.2351 289.438 75.9981 288.094 75.49C286.749 74.982 285.519 74.2132 284.479 73.2287C283.464 72.2814 282.662 71.1325 282.124 69.8571C281.586 68.5816 281.327 67.208 281.36 65.826C281.336 63.9999 281.809 62.2015 282.725 60.6185C283.618 59.0715 284.921 57.7967 286.492 56.932C288.119 56.0354 289.955 55.5745 291.816 55.5947C293.191 55.5568 294.561 55.7998 295.838 56.3089C297.117 56.8178 298.274 57.5817 299.242 58.5533C300.222 59.5179 300.991 60.6714 301.503 61.9425C302.015 63.2136 302.261 64.5755 302.223 65.9441" fill="currentColor"/>
<path d="M315.647 55.7308H316.386V60.1748H315.647C314.821 60.1283 313.996 60.2467 313.22 60.5232C312.443 60.7997 311.728 61.2286 311.122 61.7843C310.561 62.3607 310.126 63.0453 309.843 63.7954C309.56 64.5457 309.437 65.3454 309.476 66.1455V75.7199H305.113V56.0503H309.453V58.932C310.133 57.9323 311.052 57.1163 312.13 56.5576C313.208 55.9986 314.408 55.7146 315.623 55.7308" fill="currentColor"/>
<path d="M327.609 76.1874C326.213 76.226 324.821 75.9836 323.519 75.4753C322.219 74.9669 321.036 74.2027 320.04 73.2288C319.046 72.2786 318.265 71.1341 317.744 69.8677C317.22 68.6015 316.97 67.2412 317.005 65.8733C316.97 64.5065 317.222 63.1472 317.744 61.8819C318.268 60.6169 319.049 59.4733 320.04 58.5239C321.036 57.5499 322.219 56.7858 323.519 56.2774C324.821 55.7688 326.213 55.5266 327.609 55.565C329.481 55.5378 331.331 55.9924 332.975 56.8847C334.52 57.7169 335.816 58.9422 336.73 60.4351L332.956 62.7134C332.432 61.7965 331.672 61.0364 330.751 60.5121C329.806 59.97 328.731 59.6899 327.639 59.7014C326.825 59.6822 326.016 59.8301 325.261 60.1354C324.508 60.4409 323.825 60.8974 323.257 61.4767C322.675 62.0464 322.217 62.7281 321.91 63.4801C321.602 64.232 321.452 65.0383 321.471 65.8496C321.452 66.6594 321.599 67.4642 321.908 68.2143C322.217 68.9646 322.675 69.644 323.257 70.2109C323.828 70.7879 324.51 71.2431 325.263 71.5485C326.016 71.8538 326.825 72.0028 327.639 71.986C328.724 72.0044 329.792 71.7326 330.732 71.1989C331.647 70.6765 332.402 69.9229 332.926 69.0154L336.699 71.2759C335.788 72.7838 334.487 74.0233 332.933 74.8679C331.303 75.7583 329.47 76.215 327.609 76.1933" fill="currentColor"/>
<path d="M339.042 56.0501H343.429V75.7199H339.059L339.042 56.0501ZM341.228 52.7127C340.864 52.7213 340.501 52.6558 340.162 52.5206C339.823 52.3854 339.515 52.1828 339.257 51.9256C338.998 51.6727 338.794 51.3702 338.659 51.0363C338.521 50.7027 338.455 50.3448 338.465 49.9847C338.451 49.6216 338.516 49.2597 338.652 48.9225C338.79 48.5851 338.996 48.2798 339.257 48.026C339.517 47.7721 339.828 47.5728 340.167 47.4397C340.506 47.3065 340.871 47.2424 341.235 47.2509C341.603 47.241 341.967 47.3047 342.311 47.4378C342.652 47.5709 342.963 47.771 343.225 48.026C343.49 48.2796 343.695 48.5847 343.833 48.922C343.971 49.2592 344.037 49.6211 344.025 49.9847C344.034 50.3464 343.966 50.7058 343.831 51.0408C343.693 51.3756 343.487 51.679 343.225 51.9315C342.966 52.1886 342.652 52.3903 342.311 52.5243C341.97 52.6586 341.603 52.7227 341.235 52.7127" fill="currentColor"/>
<path d="M352.101 70.2462C352.672 70.8241 353.357 71.2798 354.11 71.5851C354.865 71.8905 355.674 72.0388 356.49 72.0215C357.299 72.0407 358.103 71.893 358.854 71.5872C359.602 71.2817 360.278 70.825 360.841 70.2462C361.412 69.6711 361.861 68.9875 362.16 68.236C362.459 67.4845 362.602 66.6809 362.581 65.8732C362.602 65.0647 362.459 64.2601 362.16 63.5077C361.861 62.7552 361.412 62.0704 360.841 61.4942C360.28 60.9144 359.602 60.457 358.854 60.1515C358.103 59.8459 357.299 59.6985 356.49 59.7189C355.674 59.7016 354.865 59.8499 354.11 60.1552C353.357 60.4606 352.672 60.9163 352.101 61.4942C351.521 62.0648 351.063 62.7468 350.757 63.4985C350.448 64.2502 350.298 65.056 350.315 65.8671C350.298 66.6766 350.448 67.481 350.754 68.2308C351.063 68.9807 351.521 69.6604 352.101 70.2284V70.2462ZM356.49 76.146C355.092 76.1846 353.698 75.9422 352.398 75.4338C351.096 74.9254 349.91 74.1613 348.914 73.1871C347.928 72.2412 347.149 71.1032 346.627 69.8447C346.104 68.586 345.851 67.2339 345.879 65.8732C345.847 64.5083 346.101 63.1518 346.623 61.8891C347.144 60.6262 347.925 59.4845 348.914 58.5355C349.91 57.5613 351.096 56.7972 352.398 56.2888C353.698 55.7804 355.092 55.5383 356.49 55.5769C358.384 55.5504 360.25 56.0153 361.907 56.9259C363.5 57.7922 364.826 59.0755 365.735 60.6363C366.652 62.2293 367.122 64.038 367.094 65.8732C367.115 67.7124 366.638 69.5235 365.712 71.116C364.811 72.6803 363.495 73.9683 361.907 74.8381C360.257 75.7447 358.398 76.2096 356.513 76.1874" fill="currentColor"/>
<path d="M150.98 107.952C151.791 107.973 152.597 107.826 153.347 107.52C154.097 107.215 154.775 106.757 155.338 106.177C155.907 105.603 156.355 104.921 156.653 104.172C156.951 103.423 157.093 102.621 157.072 101.816C157.094 101.008 156.952 100.203 156.654 99.451C156.356 98.6986 155.908 98.0138 155.338 97.4371C154.774 96.8583 154.096 96.4018 153.346 96.0962C152.596 95.7907 151.791 95.6428 150.98 95.6618C150.165 95.6435 149.354 95.7916 148.598 96.0969C147.843 96.4023 147.158 96.8585 146.587 97.4371C146.011 98.011 145.559 98.6951 145.258 99.448C144.957 100.201 144.813 101.006 144.835 101.816C144.814 102.623 144.959 103.426 145.26 104.175C145.561 104.925 146.013 105.606 146.587 106.177C147.156 106.758 147.841 107.216 148.597 107.521C149.353 107.827 150.164 107.973 150.98 107.952ZM157.072 83.8741H161.435V111.686H157.072V108.834C156.263 109.894 155.211 110.746 154.003 111.319C152.795 111.892 151.466 112.17 150.128 112.13C148.37 112.153 146.639 111.687 145.133 110.787C143.646 109.894 142.436 108.613 141.634 107.083C140.78 105.462 140.345 103.656 140.37 101.828C140.345 99.9992 140.78 98.1935 141.634 96.5731C142.439 95.0451 143.648 93.7641 145.133 92.8688C146.641 91.9708 148.37 91.5057 150.128 91.5256C151.465 91.4821 152.793 91.757 154.001 92.3274C155.209 92.8978 156.262 93.7468 157.072 94.8038V83.8741Z" fill="currentColor"/>
<path d="M174.656 95.425C173.321 95.4007 172.019 95.8473 170.984 96.6856C169.932 97.5339 169.193 98.7061 168.886 100.017H180.444C180.152 98.7042 179.418 97.5292 178.364 96.6856C177.314 95.848 176.002 95.4018 174.656 95.425ZM185.094 101.863C185.093 102.431 185.054 102.999 184.974 103.562H168.922C169.242 104.924 170.038 106.129 171.169 106.964C172.368 107.827 173.82 108.272 175.3 108.23C176.498 108.24 177.683 107.977 178.763 107.461C179.738 107.021 180.593 106.356 181.255 105.52L184.199 108.023C183.158 109.32 181.822 110.354 180.301 111.041C178.698 111.774 176.951 112.146 175.187 112.13C173.749 112.178 172.317 111.941 170.974 111.433C169.63 110.925 168.401 110.156 167.36 109.171C166.344 108.225 165.54 107.077 165.002 105.801C164.464 104.525 164.203 103.151 164.237 101.769C164.214 99.9428 164.685 98.1445 165.602 96.5613C166.495 95.0158 167.798 93.743 169.369 92.8807C170.995 91.9809 172.83 91.5197 174.692 91.5431C176.068 91.5066 177.437 91.7502 178.714 92.259C179.991 92.7679 181.15 93.5313 182.119 94.502C183.096 95.4678 183.865 96.6215 184.377 97.8923C184.889 99.1632 185.135 100.524 185.099 101.893" fill="currentColor"/>
<path d="M209.593 107.538C210.099 107.55 210.602 107.457 211.069 107.266C211.537 107.074 211.96 106.788 212.31 106.426C212.669 106.063 212.95 105.633 213.138 105.16C213.325 104.687 213.415 104.182 213.401 103.674C213.414 103.171 213.324 102.67 213.136 102.202C212.949 101.735 212.668 101.309 212.31 100.952C211.959 100.592 211.535 100.309 211.068 100.119C210.6 99.93 210.098 99.8387 209.593 99.8514H202.094V107.544L209.593 107.538ZM208.663 89.194H202.106V95.9756H208.663C209.106 95.9821 209.547 95.8984 209.957 95.7294C210.367 95.5605 210.738 95.3099 211.047 94.9932C211.368 94.6794 211.62 94.3039 211.789 93.8898C211.958 93.4757 212.04 93.0316 212.03 92.5848C212.052 92.1351 211.981 91.6857 211.821 91.2643C211.661 90.8429 211.416 90.4585 211.1 90.135C210.791 89.8196 210.42 89.5709 210.01 89.4041C209.6 89.237 209.159 89.1556 208.716 89.1645L208.663 89.194ZM213.61 97.5258C214.991 97.9647 216.173 98.8718 216.948 100.088C217.813 101.377 218.264 102.895 218.242 104.443C218.269 105.405 218.093 106.361 217.726 107.251C217.358 108.141 216.807 108.944 216.108 109.609C215.396 110.288 214.555 110.819 213.633 111.17C212.712 111.522 211.729 111.687 210.743 111.657H197.689V85.0281H209.855C210.771 85.0014 211.683 85.157 212.538 85.485C213.392 85.8133 214.172 86.3078 214.832 86.9395C215.486 87.5542 216.002 88.2984 216.348 89.1243C216.693 89.9501 216.859 90.839 216.835 91.7327C216.832 92.961 216.499 94.1666 215.869 95.2239C215.338 96.202 214.53 97.0043 213.545 97.5316" fill="currentColor"/>
<path d="M226.199 106.189C226.769 106.767 227.453 107.222 228.207 107.528C228.962 107.833 229.771 107.982 230.586 107.964C231.396 107.984 232.2 107.836 232.95 107.531C233.698 107.225 234.376 106.768 234.938 106.189C235.508 105.616 235.957 104.935 236.256 104.185C236.556 103.436 236.698 102.634 236.677 101.828C236.701 101.019 236.558 100.214 236.259 99.4615C235.959 98.7091 235.51 98.0243 234.938 97.4488C234.376 96.8697 233.698 96.4128 232.95 96.1072C232.2 95.8014 231.396 95.6538 230.586 95.6737C229.771 95.6562 228.962 95.8045 228.207 96.11C227.453 96.4154 226.769 96.8709 226.199 97.4488C225.618 98.0194 225.16 98.7014 224.853 99.4531C224.545 100.205 224.395 101.011 224.411 101.822C224.392 102.632 224.541 103.437 224.849 104.187C225.156 104.937 225.616 105.616 226.199 106.183V106.189ZM230.586 112.101C229.188 112.14 227.797 111.898 226.496 111.389C225.195 110.881 224.011 110.116 223.016 109.142C222.024 108.192 221.242 107.049 220.719 105.784C220.196 104.519 219.943 103.16 219.976 101.792C219.943 100.425 220.196 99.0661 220.72 97.8011C221.243 96.5361 222.025 95.3925 223.016 94.4428C224.011 93.4682 225.195 92.7038 226.496 92.1952C227.797 91.6868 229.188 91.4449 230.586 91.4839C232.471 91.4626 234.33 91.9254 235.98 92.8273C237.573 93.6935 238.898 94.9767 239.808 96.5375C240.734 98.1322 241.213 99.9451 241.19 101.786C241.213 103.627 240.734 105.441 239.808 107.035C238.898 108.596 237.573 109.879 235.98 110.745C234.33 111.65 232.471 112.113 230.586 112.089" fill="currentColor"/>
<path d="M252.35 95.6146C251.726 95.5951 251.106 95.6992 250.526 95.9206C249.944 96.1421 249.413 96.4767 248.964 96.9046C248.52 97.3176 248.169 97.8189 247.935 98.3758C247.702 98.9326 247.589 99.5322 247.603 100.135C247.589 100.735 247.704 101.331 247.938 101.883C248.172 102.436 248.522 102.933 248.964 103.343C249.413 103.771 249.944 104.105 250.526 104.327C251.106 104.548 251.726 104.652 252.35 104.633C252.967 104.651 253.582 104.545 254.16 104.323C254.735 104.1 255.261 103.765 255.705 103.337C256.142 102.926 256.486 102.429 256.72 101.877C256.951 101.326 257.064 100.733 257.052 100.135C257.068 99.5332 256.956 98.9342 256.725 98.3776C256.493 97.8208 256.145 97.319 255.705 96.9046C255.261 96.4776 254.735 96.1433 254.16 95.9217C253.582 95.7002 252.967 95.5956 252.35 95.6146ZM256.748 111.852C258.476 111.789 260.171 112.317 261.553 113.349C262.851 114.357 263.704 115.824 263.936 117.444L259.418 118.628C259.402 118.256 259.301 117.892 259.124 117.564C258.946 117.236 258.696 116.952 258.394 116.734C257.686 116.24 256.832 115.992 255.967 116.03H249.154C247.608 116.1 246.088 115.608 244.879 114.645C244.351 114.202 243.928 113.645 243.647 113.017C243.364 112.389 243.231 111.705 243.252 111.018C243.25 110.053 243.488 109.103 243.951 108.254C244.386 107.431 245.045 106.744 245.852 106.272C244.985 105.497 244.297 104.545 243.837 103.482C243.374 102.419 243.149 101.269 243.175 100.112C243.149 98.9609 243.369 97.8175 243.825 96.7582C244.278 95.699 244.957 94.7482 245.81 93.9696C247.582 92.3213 249.939 91.4346 252.366 91.502C253.933 91.4889 255.478 91.8438 256.879 92.5375C257.103 91.528 257.704 90.6403 258.56 90.0521C259.498 89.4282 260.608 89.1114 261.738 89.1467H263.335V93.1587H261.969C261.422 93.1397 260.882 93.3021 260.438 93.6203C260.239 93.7639 260.075 93.948 259.956 94.1607C259.837 94.3732 259.764 94.6088 259.746 94.8511C260.961 96.3363 261.614 98.1982 261.588 100.112C261.611 101.261 261.385 102.402 260.926 103.457C260.468 104.513 259.788 105.458 258.929 106.231C257.155 107.876 254.8 108.763 252.373 108.698C251.115 108.715 249.867 108.498 248.688 108.059C248.361 108.252 248.09 108.528 247.905 108.859C247.718 109.189 247.622 109.562 247.627 109.941C247.622 110.202 247.676 110.46 247.788 110.696C247.9 110.933 248.066 111.14 248.272 111.302C248.754 111.668 249.352 111.855 249.958 111.828L256.748 111.852Z" fill="currentColor"/>
<path d="M269.737 106.189C270.305 106.766 270.987 107.221 271.743 107.527C272.496 107.832 273.305 107.981 274.118 107.964C274.927 107.984 275.734 107.836 276.485 107.531C277.235 107.225 277.913 106.768 278.474 106.189C279.045 105.615 279.491 104.933 279.791 104.184C280.088 103.434 280.23 102.633 280.209 101.828C280.233 101.019 280.09 100.215 279.791 99.4629C279.494 98.7105 279.045 98.0255 278.474 97.4488C277.913 96.8695 277.235 96.4126 276.485 96.107C275.734 95.8015 274.927 95.6538 274.118 95.6735C273.305 95.6545 272.493 95.8022 271.74 96.1077C270.987 96.413 270.305 96.8697 269.737 97.4488C269.154 98.0194 268.698 98.7014 268.39 99.4531C268.083 100.205 267.931 101.011 267.948 101.822C267.929 102.631 268.079 103.437 268.387 104.187C268.694 104.937 269.154 105.616 269.737 106.183V106.189ZM274.118 112.101C272.72 112.139 271.329 111.896 270.029 111.388C268.726 110.879 267.543 110.115 266.547 109.142C265.558 108.191 264.777 107.047 264.256 105.782C263.732 104.517 263.48 103.159 263.512 101.792C263.484 100.432 263.737 99.0814 264.258 97.8231C264.777 96.5646 265.554 95.4262 266.536 94.4782C267.532 93.5047 268.715 92.7406 270.017 92.2322C271.317 91.7238 272.708 91.4814 274.107 91.5195C275.991 91.4989 277.852 91.9617 279.505 92.8629C281.1 93.729 282.424 95.0123 283.333 96.5731C284.257 98.1687 284.736 99.9812 284.715 101.822C284.736 103.663 284.257 105.475 283.333 107.071C282.424 108.631 281.1 109.915 279.505 110.781C277.852 111.685 275.994 112.148 274.107 112.124" fill="currentColor"/>
<path d="M298.873 95.9102H293.275V105.219C293.247 105.593 293.301 105.969 293.429 106.322C293.56 106.675 293.764 106.997 294.025 107.266C294.624 107.756 295.386 108.001 296.16 107.952C297.105 107.935 298.033 107.703 298.873 107.272V111.325C297.746 111.877 296.504 112.155 295.248 112.136C293.163 112.136 291.589 111.586 290.521 110.497C289.454 109.408 288.931 107.875 288.931 105.917V95.9102H285.573V91.993H288.931V86.892H293.275V91.993H298.873V95.9102Z" fill="currentColor"/>
<path d="M318.394 84.3474L313.495 89.6731H308.906L312.869 84.3474H318.394ZM310.86 107.952C311.669 107.972 312.474 107.824 313.224 107.519C313.972 107.213 314.65 106.756 315.212 106.177C315.782 105.604 316.231 104.923 316.53 104.173C316.83 103.424 316.972 102.622 316.951 101.816C316.975 101.007 316.832 100.202 316.533 99.4496C316.233 98.6972 315.784 98.0124 315.212 97.4368C314.65 96.8578 313.972 96.4008 313.224 96.0953C312.474 95.7895 311.669 95.6419 310.86 95.6615C310.044 95.6433 309.233 95.7914 308.478 96.0967C307.722 96.4022 307.037 96.8582 306.467 97.4368C305.885 98.0079 305.426 98.6908 305.118 99.4437C304.811 100.197 304.662 101.004 304.678 101.816C304.662 102.625 304.814 103.429 305.12 104.179C305.429 104.929 305.887 105.609 306.467 106.177C307.037 106.756 307.722 107.212 308.478 107.517C309.233 107.822 310.044 107.97 310.86 107.952ZM316.951 91.975H321.314V111.645H316.951V108.834C316.142 109.893 315.09 110.745 313.883 111.318C312.675 111.892 311.347 112.17 310.007 112.13C308.249 112.152 306.518 111.687 305.012 110.787C303.525 109.894 302.314 108.612 301.515 107.082C300.659 105.462 300.224 103.656 300.25 101.828C300.224 99.9991 300.659 98.1932 301.515 96.573C302.319 95.0448 303.528 93.7641 305.012 92.8685C306.521 91.9706 308.249 91.5057 310.007 91.5253C311.344 91.4818 312.672 91.7569 313.881 92.3271C315.088 92.8975 316.142 93.7465 316.951 94.8036V91.975Z" fill="currentColor"/>
</svg>
