<svg width="400" height="70" viewBox="0 0 400 70" fill="none" xmlns="http://www.w3.org/2000/svg">
<path d="M154.883 33.7134L150.124 23.2027L145.563 33.7134H154.883ZM145.959 16.0634H154.685C156.272 19.4348 168.765 46.6038 168.765 46.6038H160.833L157.462 39.4645H142.985L139.812 46.6038H131.681L145.959 16.0634Z" fill="currentColor"/>
<path d="M249.48 22.8062C244.323 22.8062 241.944 25.3842 241.944 25.3842L241.547 23.2028H234.606C234.804 23.996 235.399 25.5826 235.399 26.9708V46.4056H242.142V32.9202C242.142 29.3505 244.323 27.3674 249.48 27.3674C252.256 27.3674 254.041 28.359 254.041 32.9202V46.4056H260.783V32.9202C260.585 25.9792 258.404 22.8062 249.48 22.8062Z" fill="currentColor"/>
<path d="M272.881 32.5236C273.277 29.7472 274.665 27.5657 280.02 27.5657C283.986 27.5657 285.374 30.1438 285.573 32.5236H272.881ZM279.822 22.8062C268.319 22.8062 265.741 28.1606 265.741 34.9033C265.741 41.646 268.319 47.0005 280.416 47.0005C284.779 47.0005 288.944 46.2073 289.936 46.0089C290.134 44.8191 290.531 42.241 290.729 41.4477C290.134 41.4477 284.779 42.4393 280.416 42.4393C274.864 42.4393 273.277 40.2578 272.881 37.2831H292.315V34.9033C292.315 26.5741 287.754 22.8062 279.822 22.8062Z" fill="currentColor"/>
<path d="M51.3635 42.4393C45.6124 42.4393 44.0259 39.6629 44.0259 34.9033C44.0259 30.3421 45.6124 27.5657 51.3635 27.5657C56.9163 27.5657 58.7012 30.3421 58.7012 34.9033C58.7012 39.6629 57.1146 42.4393 51.3635 42.4393ZM51.3635 22.8062C42.836 22.8062 37.2832 26.5741 37.2832 34.9033C37.2832 43.2325 42.836 47.0005 51.3635 47.0005C59.891 47.0005 65.4439 43.2325 65.4439 34.9033C65.4439 26.5741 59.891 22.8062 51.3635 22.8062Z" fill="currentColor"/>
<path d="M119.782 37.6797C119.782 42.0427 115.617 42.4393 111.849 42.4393C110.461 42.4393 108.478 42.241 108.478 39.6629C108.478 38.0764 110.66 36.8865 113.436 36.8865H119.584V37.6797H119.782ZM126.525 30.3421C126.525 25.5826 121.567 22.8062 114.229 22.8062C110.461 22.8062 105.702 24.1944 104.115 24.7893C103.917 25.7809 103.52 28.7556 103.322 29.5488C104.71 29.1522 110.461 27.5657 114.229 27.5657C117.997 27.5657 119.782 28.7556 119.782 30.7387V32.7219C119.782 32.7219 115.221 32.3252 113.634 32.3252C106.297 32.3252 101.735 34.9033 101.735 39.8612C101.735 46.0089 108.478 47.1988 111.849 47.1988C116.411 47.1988 118.989 46.0089 119.98 45.0174L120.377 46.8022H127.12C127.12 46.4056 126.525 44.8191 126.525 42.6376V30.3421Z" fill="currentColor"/>
<path d="M18.4432 15.0718C26.3758 15.0718 31.3337 17.6499 34.1101 21.6162L26.9708 24.3926C25.3842 22.2112 22.8062 20.823 18.4432 20.823C14.2786 20.823 11.7006 22.2112 10.114 24.1943C8.72583 25.9791 7.93258 28.1606 7.93258 30.937V31.3336C7.93258 33.9117 8.72583 36.2915 10.114 38.0763C11.7006 40.0595 14.2786 41.4477 18.4432 41.4477H18.6416C22.8062 41.4477 25.3842 40.0595 26.9708 37.878L34.1101 40.6544C31.3337 44.6207 26.3758 47.0005 18.4432 47.0005C11.5022 47.0005 6.74269 45.2156 3.96629 42.0426C1.3882 39.2662 0 35.4982 0 31.1353V30.937C0 26.7724 1.3882 23.0044 3.96629 20.228C6.74269 17.055 11.5022 15.0718 18.4432 15.0718Z" fill="currentColor"/>
<path d="M214.973 42.8359V16.0634H208.23V42.8359C208.23 44.4224 208.825 46.2072 209.023 46.6038H215.766C215.766 46.0089 214.973 44.4224 214.973 42.8359Z" fill="currentColor"/>
<path d="M192.365 32.9202C192.365 29.3506 194.943 27.3674 199.703 27.3674C200.496 27.3674 203.471 27.7641 204.859 27.9624C204.859 27.3674 204.264 24.3927 204.066 23.2028C203.074 23.0045 200.892 22.6079 199.703 22.6079C195.736 22.6079 193.555 23.9961 192.365 25.186L191.77 23.0045H185.027C185.226 23.4011 185.821 24.9877 185.821 26.5742V46.2073H192.365V32.9202Z" fill="currentColor"/>
<path d="M84.6802 42.4393C78.9291 42.4393 77.3426 39.0679 77.3426 34.9033C77.5409 30.5404 78.9291 27.5657 84.6802 27.5657C89.8364 27.5657 90.828 30.7387 90.828 34.9033C90.828 39.0679 89.8364 42.4393 84.6802 42.4393ZM84.6802 22.8062C80.5156 22.8062 77.1443 25.3842 77.1443 25.3842C77.1443 25.3842 76.7476 23.996 76.5493 23.4011H69.8066C70.005 24.1944 70.5999 25.7809 70.5999 27.5657V53.9415H77.3426V44.8191C78.7308 45.8106 81.3089 47.1988 84.6802 47.1988C95.9841 47.1988 97.5707 41.8443 97.5707 35.1016C97.5707 28.359 95.9841 22.8062 84.6802 22.8062Z" fill="currentColor"/>
<path d="M316.708 23.996V29.1522C315.32 28.359 313.932 27.9623 312.543 27.5657C311.155 27.1691 309.569 26.9708 308.18 26.9708C306.594 26.9708 305.404 27.1691 304.611 27.5657C303.817 27.9623 303.421 28.5573 303.421 29.3505C303.421 30.5404 305.206 31.3337 308.775 31.9286H308.974L310.957 32.3252C313.535 32.9202 315.518 33.7134 316.708 34.9033C317.898 36.0932 318.493 37.6797 318.493 39.6629C318.493 42.0427 317.501 43.8275 315.716 45.0174C313.931 46.2073 311.155 46.8022 307.387 46.8022C305.801 46.8022 304.016 46.6039 302.231 46.4056C300.446 46.2073 298.661 45.8106 296.876 45.414V40.0595C298.463 40.8528 300.049 41.4477 301.636 41.8443C303.223 42.241 304.809 42.4393 306.396 42.4393C307.982 42.4393 309.37 42.241 310.164 41.8443C310.957 41.4477 311.552 40.8528 311.552 40.0595C311.552 39.2663 311.155 38.6713 310.56 38.2747C309.965 37.878 308.379 37.4814 306.197 36.8865L304.214 36.4898C301.438 36.0932 299.455 35.1016 298.265 34.1101C297.075 32.9202 296.281 31.532 296.281 29.7472C296.281 27.5657 297.273 25.7809 299.058 24.591C301.041 23.4011 303.619 22.8062 307.189 22.8062C308.775 22.8062 310.362 23.0045 311.948 23.2028C313.733 23.4011 315.121 23.5994 316.708 23.996Z" fill="currentColor"/>
<path d="M225.285 21.4179C226.673 21.4179 227.665 21.2196 228.26 20.823C228.855 20.4264 229.053 19.6331 229.053 18.6415C229.053 17.65 228.855 16.8567 228.26 16.4601C227.665 16.0635 226.673 15.8651 225.285 15.8651C223.897 15.8651 222.707 16.0635 222.31 16.4601C221.715 16.8567 221.517 17.65 221.517 18.6415C221.517 19.6331 221.715 20.4264 222.31 20.823C222.707 21.2196 223.699 21.4179 225.285 21.4179ZM228.656 42.8359V23.2028H221.914V42.8359C221.914 44.6207 222.509 46.2072 222.707 46.6039H229.45C229.251 46.0089 228.656 44.4224 228.656 42.8359Z" fill="currentColor"/>
<path d="M175.508 21.4179C176.897 21.4179 177.888 21.2196 178.483 20.823C179.078 20.4264 179.276 19.6331 179.276 18.6415C179.276 17.65 179.078 16.8567 178.483 16.4601C177.888 16.0635 176.897 15.8651 175.508 15.8651C173.922 15.8651 172.93 16.0635 172.534 16.4601C171.939 16.8567 171.74 17.65 171.74 18.6415C171.74 19.6331 171.939 20.4264 172.534 20.823C173.129 21.2196 174.12 21.4179 175.508 21.4179ZM178.88 42.8359V23.2028H172.137V42.8359C172.137 44.6207 172.732 46.2072 172.93 46.6039H179.673C179.475 46.0089 178.88 44.4224 178.88 42.8359Z" fill="currentColor"/>
<path d="M330.194 30.5404V32.7219C337.73 29.7472 345.067 27.9623 352.405 26.9708C345.662 26.7725 337.928 27.9623 330.194 30.5404Z" fill="currentColor"/>
<path d="M370.848 32.7219C369.063 31.532 367.278 30.3421 364.899 29.3505C365.692 29.3505 366.485 29.1522 367.477 29.1522C368.865 30.1438 371.046 31.7303 372.236 33.1185L370.848 32.7219ZM354.586 23.5994C352.801 23.0045 350.62 22.4095 348.439 22.2112C349.43 22.0129 350.223 21.8146 351.413 21.6163C353 22.0129 354.983 22.8062 356.768 23.996L354.586 23.5994ZM330.194 18.8399C332.177 18.8399 334.557 19.4348 336.936 19.8314L332.573 20.4264C331.78 20.4264 330.987 20.6247 330.194 20.6247V21.6163C333.367 21.0213 336.738 20.6247 340.109 20.6247C368.27 13.882 391.473 20.2281 391.473 20.2281C386.515 19.0382 358.553 15.2702 330.194 26.3758V28.1606C334.358 26.7724 338.919 25.5826 343.084 25.1859C349.43 24.3927 355.181 24.7893 360.139 26.1775C380.962 24.591 396.034 29.1522 396.034 29.1522C390.283 28.1606 359.941 23.996 330.194 37.6797V39.0679C338.523 35.1017 347.249 32.7219 354.586 32.3253C362.122 31.9286 368.865 32.9202 373.823 36.0932C385.722 35.8949 394.844 37.4814 399.802 38.6713V0H330.194V18.8399Z" fill="currentColor"/>
<path d="M330.194 41.8444V46.009C342.489 40.0595 354.983 37.2831 365.692 36.2915C355.776 34.5067 343.084 36.2916 330.194 41.8444Z" fill="currentColor"/>
<path d="M383.738 46.8022C381.557 43.6292 378.979 41.2494 375.211 39.4646C376.401 39.2663 377.789 39.2663 378.78 39.2663C379.177 39.4646 379.574 39.8612 379.772 40.2578C379.97 40.4561 383.937 44.6207 385.325 48.587L383.738 46.8022ZM330.193 51.7601V53.5449C330.987 53.1483 331.78 52.5533 332.573 52.1567C338.919 48.7853 345.067 46.4056 351.413 45.0174C357.363 43.6292 363.114 43.0342 368.468 43.6292C378.582 44.6207 385.721 48.9837 389.093 56.5196C389.093 56.5196 391.671 62.0724 391.869 67.4269L390.679 64.4522C390.283 62.8657 389.886 61.4775 389.093 60.0893C386.515 55.1314 381.557 51.5618 374.814 49.3803C368.666 47.3971 360.734 47.3972 352.206 48.9837C344.869 50.3719 337.333 53.1483 329.995 56.7179V70.005H330.788C335.151 66.832 339.713 64.4522 344.67 62.469C357.363 56.9162 369.658 55.3297 378.979 57.9078C385.721 59.891 390.283 63.8572 392.068 70.005H400V39.0679C388.498 37.8781 358.156 35.6966 330.193 51.7601Z" fill="currentColor"/>
<path d="M377.59 62.469C371.641 60.8825 364.502 60.6842 356.966 62.2707C350.025 63.4606 342.885 65.8404 335.944 69.8067H388.696C386.316 66.0387 382.35 63.8572 377.59 62.469Z" fill="currentColor"/>
</svg>
