<svg width="196" height="28" viewBox="0 0 196 28" fill="none" xmlns="http://www.w3.org/2000/svg">
<path d="M0 22.1H26.506L25.058 24.071H0V22.1Z" fill="currentColor"/>
<path d="M0 18.445H29.199L27.748 20.412H0V18.445Z" fill="currentColor"/>
<path d="M0 25.759H23.815L22.373 27.716H0V25.759Z" fill="currentColor"/>
<path d="M196 24.071H169.598L171.045 22.102H196V24.071Z" fill="currentColor"/>
<path d="M196 27.716L166.913 27.718L168.354 25.759H196V27.716Z" fill="currentColor"/>
<path d="M173.735 18.445H196V20.414L172.287 20.415L173.735 18.445Z" fill="currentColor"/>
<path d="M25.6726 27.7156L38.2505 10.6268H53.8587C55.5839 10.6268 55.5613 11.2818 54.7187 12.4243C53.8625 13.5843 52.4054 15.579 51.5333 16.7566C51.0907 17.3548 50.2902 18.4447 52.9422 18.4447H73.8522C72.1132 20.8269 66.4722 27.7156 56.344 27.7156H25.6726Z" fill="currentColor"/>
<path d="M97.7057 18.4433L90.8857 27.7156H72.8931C72.8931 27.7156 79.7103 18.4447 79.7164 18.4447L97.7057 18.4433Z" fill="currentColor"/>
<path d="M123.724 18.4446L116.9 27.7155H98.9143C98.9143 27.7155 105.732 18.4446 105.738 18.4446H123.724Z" fill="currentColor"/>
<path d="M129.575 18.4447C129.575 18.4447 128.261 20.2421 127.622 21.1047C125.363 24.1581 127.359 27.7147 134.733 27.7147H163.618L170.441 18.4438L129.575 18.4447Z" fill="currentColor"/>
<path d="M34.4684 0L28.2063 8.5079H62.3352C64.0601 8.5079 64.0375 9.1629 63.1944 10.3054C62.3382 11.4641 60.905 13.4817 60.033 14.6593C59.5903 15.2562 58.7898 16.346 61.4419 16.346H75.3983C75.3983 16.346 77.6483 13.2845 79.5335 10.7254C82.099 7.2439 79.756 0 70.5849 0H34.4684Z" fill="currentColor"/>
<path d="M125.269 16.346H81.262L93.296 0H111.282L104.386 9.372H112.414L119.315 0H137.299L125.269 16.346Z" fill="currentColor"/>
<path d="M162.208 0L150.177 16.346H131.118C131.118 16.346 143.153 0 143.159 0H162.208Z" fill="currentColor"/>
</svg>
