<svg width="303" height="145" viewBox="0 0 303 145" fill="none" xmlns="http://www.w3.org/2000/svg">
<path d="M173.375 13.3521C171.702 13.3386 170.027 13.4768 168.375 13.7701C165.126 14.3615 161.878 15.7952 159.575 18.4898C157.246 21.1396 156.095 24.8071 155.758 28.4355C155.387 32.4569 155.688 36.6846 157.298 40.3616C158.521 43.1729 160.621 45.4727 163.134 46.8521C166.574 48.7626 170.51 49.2061 174.304 49.0621C177.73 48.9649 181.132 48.1437 184.307 46.7216C184.799 46.5212 184.961 45.9063 184.933 45.3752C184.944 40.9646 184.935 36.5543 184.938 32.1457C184.903 31.7255 184.994 31.1826 184.653 30.8907C184.323 30.6884 183.931 30.7234 183.567 30.7098C180.535 30.7175 177.503 30.7041 174.471 30.7177C174.166 30.7255 173.682 30.7196 173.619 31.1573C173.39 32.4453 174.367 33.702 175.525 33.7584C177.583 33.8207 179.645 33.7623 181.704 33.7856C181.698 37.2642 181.705 40.743 181.7 44.2217C178.125 45.8365 174.181 46.1515 170.368 45.776C167.471 45.4452 164.475 44.4375 162.368 42.0893C160.305 39.8538 159.388 36.63 159.162 33.5016C158.995 30.6358 159.091 27.6943 159.93 24.953C160.68 22.3888 162.24 20.1105 164.341 18.7408C167.167 16.8789 170.545 16.447 173.773 16.484C176.814 16.5209 179.878 17.1359 182.651 18.5561C183.192 18.8051 183.697 19.1416 184.246 19.3654C184.524 19.523 184.702 19.1417 184.709 18.8927C184.825 17.6982 184.246 16.4646 183.316 15.8615C181.485 14.6203 179.376 13.988 177.267 13.6573C175.978 13.4649 174.677 13.3626 173.375 13.3521ZM272.108 25.8434C271.272 25.832 270.437 25.8847 269.62 25.9863C266.791 26.3579 263.933 27.7567 262.24 30.3948C260.434 33.1692 260.048 36.8191 260.551 40.1323C260.962 42.8794 262.356 45.4688 264.484 46.9805C267.091 48.8715 270.332 49.2705 273.373 49.0214C276.192 48.7744 279.091 47.6205 280.971 45.1731C283.089 42.4551 283.599 38.5973 283.101 35.1362C282.711 32.3366 281.347 29.6711 279.213 28.0796C277.129 26.4877 274.615 25.8775 272.108 25.8434ZM245.378 25.8719C244.676 25.8755 243.977 25.9349 243.292 26.0426C240.797 26.4142 238.426 27.883 236.983 30.2041C236.962 29.1924 237.132 28.0814 236.64 27.1689C236.208 26.3829 235.32 26.1766 234.552 26.1533C234.274 26.1358 233.898 26.2098 233.84 26.5736C233.772 27.0892 233.798 27.6126 233.793 28.134C233.797 38.3111 233.793 48.4902 233.795 58.6673C233.779 59.142 233.856 59.8053 234.379 59.8889C235.073 59.9706 235.788 59.9941 236.481 59.8657C236.962 59.7528 236.985 59.1263 236.988 58.6905C236.988 54.136 236.995 49.5816 236.983 45.0291C238.557 47.5583 241.302 48.856 243.997 49.0603C247.167 49.3521 250.653 48.6768 253.02 46.1437C255.39 43.6573 256.151 39.8092 255.885 36.3053C255.708 33.2839 254.57 30.2293 252.399 28.3169C250.424 26.5583 247.886 25.859 245.378 25.8719ZM200.791 26.0384C199.537 26.0285 198.274 26.2845 197.196 27.0199C195.928 27.8623 195.073 29.2983 194.568 30.8138C194.506 29.7749 194.674 28.6522 194.241 27.6891C193.77 26.7144 192.644 26.4889 191.74 26.594C191.329 26.6738 191.341 27.2183 191.339 27.5763C191.334 34.3195 191.339 41.0629 191.336 47.8061C191.341 48.2516 191.341 48.8937 191.817 49.0455C192.53 49.1933 193.279 49.17 193.997 49.0669C194.578 48.9268 194.513 48.1407 194.55 47.6349C194.519 45.7458 194.566 43.8566 194.552 41.9675C194.576 39.5025 194.414 36.9889 195.003 34.5803C195.403 32.8177 196.222 31.0685 197.637 30.0685C199.14 28.9965 201.038 28.9421 202.743 29.3137C203.198 29.3935 203.663 29.5821 204.126 29.4595C204.388 28.9732 204.266 28.3158 204.166 27.7808C203.92 26.7321 202.918 26.2593 202.036 26.129C201.627 26.0745 201.21 26.0416 200.791 26.0384ZM208.91 26.2814C208.695 26.2841 208.486 26.3327 208.309 26.4883C208.17 26.8657 208.204 27.2803 208.193 27.6772C208.202 32.1364 208.183 36.5955 208.202 41.0546C208.239 43.3173 208.793 45.7608 210.393 47.292C212.159 48.9846 214.632 49.2727 216.872 49.1229C219.341 48.9634 221.914 47.8893 223.404 45.5955C223.404 46.5041 223.344 47.5332 223.907 48.2764C224.495 49.004 225.47 49.1345 226.296 49.0061C226.668 48.8291 226.571 48.2842 226.605 47.9224C226.607 41.6247 226.605 35.329 226.605 29.0313C226.605 28.2822 226.497 27.4514 225.977 26.9145C225.411 26.3561 224.594 26.2589 223.867 26.3036C223.405 26.3445 223.414 26.9203 223.407 27.3055C223.4 31.5176 223.409 35.7297 223.404 39.9418C223.314 41.7453 222.54 43.5392 221.204 44.5995C219.857 45.6792 218.15 45.9924 216.526 45.9905C215.216 45.9555 213.821 45.6696 212.81 44.6734C211.796 43.6948 211.404 42.1499 211.399 40.7025C211.39 36.8133 211.399 32.9261 211.395 29.0389C211.392 28.4105 211.322 27.7432 210.988 27.2159C210.668 26.6906 210.104 26.4302 209.555 26.3504C209.349 26.3222 209.126 26.2788 208.91 26.2814ZM271.941 28.8587C273.663 28.8643 275.385 29.2953 276.837 30.3385C278.498 31.5175 279.549 33.566 279.854 35.7061C280.186 38.1011 279.923 40.7238 278.635 42.7413C277.512 44.5429 275.622 45.5895 273.705 45.9086C271.614 46.251 269.387 46.0837 267.466 45.0428C265.71 44.1089 264.402 42.2665 263.931 40.1711C263.424 37.891 263.543 35.3794 264.484 33.2548C265.448 31.0291 267.466 29.539 269.618 29.0973C270.376 28.9417 271.158 28.8562 271.941 28.8587ZM244.654 28.9908C246.227 28.9656 247.805 29.3098 249.175 30.1845C250.922 31.2876 252.058 33.3538 252.385 35.5328C252.686 37.4842 252.601 39.5601 251.898 41.3986C251.242 43.1457 249.929 44.5486 248.348 45.2412C246.485 46.0486 244.403 46.1282 242.455 45.7041C240.531 45.2936 238.735 43.9979 237.779 42.0718C236.541 39.566 236.476 36.4298 237.436 33.7975C238.286 31.4259 240.298 29.7175 242.533 29.2389C243.226 29.09 243.939 29.0023 244.654 28.9908Z" fill="currentColor"/>
<path d="M295.275 98.0038C294.633 98.0038 293.855 97.9185 293.416 98.5527C292.05 100.278 290.714 102.045 289.35 103.773C289.166 103.987 289.039 104.236 288.947 104.512C290.05 104.564 291.456 104.963 292.285 103.907C293.755 102.3 295.239 100.708 296.72 99.1128C296.948 98.887 297.08 98.5732 297.157 98.2503C296.872 98.0558 296.56 98.0123 296.239 98.0038C295.918 97.9952 295.59 98.0233 295.275 98.0038ZM157.128 99.0455C156.733 99.0731 156.287 99.0474 155.941 99.3032C155.605 99.6261 155.634 100.176 155.616 100.625C155.615 111.271 155.618 121.905 155.616 132.549C155.63 132.897 155.603 133.293 155.818 133.579C156.12 133.883 156.573 133.834 156.949 133.859C160.627 133.849 164.305 133.872 167.983 133.848C170.66 133.774 173.492 133.221 175.644 131.328C177.344 129.851 178.277 127.486 178.389 125.122C178.529 122.717 178.133 120.073 176.563 118.289C175.108 116.568 172.977 115.929 170.962 115.489C172.674 115.024 174.267 113.811 175.107 112.062C175.906 110.416 176.067 108.479 175.936 106.64C175.775 104.555 174.873 102.529 173.37 101.241C171.501 99.6126 169.06 99.1112 166.739 99.0568C165.136 99.0482 163.537 99.0453 161.934 99.0453C160.331 99.0453 158.731 99.0524 157.128 99.0455ZM158.797 102.059H162.46C163.68 102.059 164.892 102.056 166.112 102.07C167.843 102.13 169.723 102.481 171.052 103.818C172.325 105.096 172.679 107.142 172.497 108.971C172.387 110.441 171.807 111.928 170.738 112.846C169.61 113.823 168.155 114.191 166.75 114.224C164.105 114.267 161.454 114.187 158.809 114.269C158.792 110.201 158.811 106.127 158.797 102.059ZM270.991 104.187C270.177 104.165 269.395 104.738 269.042 105.554C268.304 107.18 268.454 109.054 268.437 110.818C267.305 110.849 266.167 110.744 265.043 110.875C264.466 110.962 264.569 111.75 264.55 112.219C264.59 112.754 264.387 113.689 265.065 113.798C266.186 113.884 267.314 113.811 268.437 113.832C268.438 118.163 268.43 122.484 268.437 126.815C268.454 128.766 268.784 130.901 270.061 132.348C271.264 133.669 273.055 133.976 274.676 133.871C275.973 133.776 277.393 133.563 278.372 132.516C278.977 131.913 279.098 130.901 278.921 130.063C278.793 129.623 278.308 129.856 278.047 129.985C276.953 130.572 275.723 130.86 274.508 130.769C273.775 130.706 273.042 130.379 272.548 129.76C271.848 128.918 271.67 127.718 271.663 126.613C271.657 122.354 271.668 118.1 271.651 113.843C273.709 113.813 275.776 113.844 277.834 113.821C278.138 113.828 278.561 113.729 278.596 113.317C278.668 112.665 278.673 111.995 278.596 111.345C278.528 110.857 278.003 110.821 277.655 110.819C275.658 110.812 273.659 110.819 271.662 110.819C271.659 108.947 271.672 107.079 271.662 105.207C271.634 104.867 271.698 104.39 271.349 104.233C271.232 104.204 271.118 104.19 271.001 104.188L270.991 104.187ZM250.055 110.449C249.22 110.439 248.386 110.495 247.568 110.594C244.779 110.966 241.97 112.315 240.254 114.873C238.341 117.685 237.923 121.44 238.439 124.843C238.866 127.775 240.43 130.521 242.763 132.012C245.369 133.724 248.514 134.064 251.478 133.804C254.288 133.531 257.175 132.357 259.039 129.906C261.095 127.252 261.638 123.514 261.212 120.127C260.874 117.156 259.447 114.31 257.179 112.644C255.083 111.073 252.562 110.479 250.055 110.449ZM194.608 110.483C193.77 110.476 192.93 110.535 192.11 110.64C189.213 111.035 186.294 112.53 184.628 115.289C182.893 118.114 182.553 121.762 183.093 125.067C183.544 127.859 185.027 130.455 187.227 131.934C189.944 133.796 193.271 134.137 196.389 133.805C199.203 133.487 202.073 132.212 203.861 129.682C205.814 126.963 206.265 123.254 205.798 119.892C205.409 117.005 203.974 114.261 201.755 112.656C199.646 111.092 197.122 110.501 194.608 110.483ZM221.335 110.495C221.187 110.495 221.045 110.503 220.898 110.506C218.034 110.54 215.074 111.69 213.158 114.135C210.935 116.916 210.315 120.888 210.761 124.486C211.093 127.324 212.378 130.09 214.513 131.755C217.094 133.808 220.454 134.227 223.53 133.76C225.98 133.402 228.372 132.039 229.792 129.739C229.731 131.827 229.856 133.956 229.344 135.989C228.943 137.703 228.073 139.328 226.734 140.324C225.081 141.575 223.019 141.881 221.066 141.893C218.111 141.919 215.12 141.35 212.419 139.988C212.083 139.815 211.499 139.558 211.321 140.089C210.994 141.219 211.651 142.414 212.564 142.912C214.997 144.367 217.817 144.748 220.54 144.827C223.129 144.885 225.82 144.628 228.156 143.281C229.931 142.27 231.344 140.525 232.077 138.465C232.769 136.566 232.977 134.496 232.984 132.461C232.984 125.91 232.983 119.353 232.984 112.802C232.974 112.287 233.019 111.763 232.917 111.257C232.887 110.908 232.533 110.789 232.267 110.82C231.529 110.834 230.69 111.025 230.229 111.727C229.65 112.614 229.765 113.771 229.758 114.808C229.129 113.952 228.457 113.102 227.63 112.478C225.805 111.044 223.547 110.483 221.335 110.495ZM291.31 110.518C289.422 110.525 287.541 110.752 285.698 111.212C285.06 111.385 284.376 111.573 283.895 112.108C283.417 112.647 283.305 113.455 283.368 114.181C283.448 114.71 284.056 114.482 284.376 114.427C287.153 113.637 290.049 113.264 292.912 113.576C294.445 113.772 296.142 114.394 296.944 115.984C297.826 117.731 297.439 119.809 297.527 121.719C294.507 121.32 291.458 121.186 288.42 121.338C286.517 121.519 284.435 121.853 282.976 123.354C281.672 124.738 281.5 126.921 281.778 128.798C281.984 130.361 282.795 131.833 284.029 132.64C285.65 133.716 287.6 133.922 289.451 133.906C292.255 133.867 295.176 133.276 297.516 131.453C297.521 132.57 298.236 133.608 299.263 133.727C299.758 133.787 300.727 134.049 300.73 133.189C300.788 128.936 300.736 124.675 300.753 120.42C300.73 118.803 300.877 117.139 300.394 115.581C299.948 114.001 298.884 112.692 297.583 111.918C296.061 111.013 294.327 110.658 292.62 110.551C292.185 110.528 291.746 110.518 291.31 110.518ZM249.999 113.486C251.677 113.506 253.354 113.933 254.782 114.931C256.531 116.137 257.628 118.292 257.907 120.532C258.254 123.084 257.875 125.907 256.35 127.936C255.039 129.704 252.999 130.592 250.985 130.781C248.823 130.977 246.517 130.69 244.667 129.336C243.09 128.206 242.041 126.282 241.721 124.239C241.338 121.833 241.597 119.204 242.819 117.126C243.909 115.249 245.783 114.078 247.737 113.699C248.478 113.558 249.236 113.477 249.999 113.486ZM194.709 113.531C196.385 113.565 198.056 114.001 199.47 115.021C201.127 116.203 202.196 118.233 202.505 120.375C202.888 122.984 202.543 125.901 200.971 127.981C199.682 129.718 197.686 130.599 195.706 130.803C193.496 131.021 191.13 130.739 189.243 129.336C187.641 128.18 186.615 126.192 186.319 124.116C185.964 121.729 186.257 119.134 187.484 117.093C188.591 115.219 190.488 114.074 192.446 113.71C193.187 113.577 193.947 113.516 194.709 113.531ZM222.141 113.632C223.842 113.658 225.543 114.117 226.936 115.233C228.567 116.5 229.551 118.615 229.825 120.778C230.14 123.237 229.749 125.922 228.313 127.891C227.117 129.556 225.246 130.462 223.373 130.691C221.383 130.94 219.255 130.736 217.482 129.627C215.988 128.713 214.911 127.081 214.446 125.27C214.021 123.628 213.99 121.873 214.256 120.196C214.553 118.34 215.398 116.552 216.753 115.39C217.813 114.456 219.119 113.944 220.45 113.744C221.004 113.669 221.574 113.622 222.141 113.632ZM158.797 117.25H162.942C164.323 117.25 165.706 117.243 167.086 117.25C169.001 117.285 171.006 117.568 172.654 118.739C173.909 119.617 174.706 121.159 174.883 122.783C175.064 124.54 174.93 126.468 173.975 127.947C173.148 129.249 171.809 130.02 170.447 130.411C168.557 130.97 166.58 130.846 164.645 130.859H158.797C158.801 126.322 158.804 121.785 158.797 117.25ZM291.601 123.993H291.613C293.591 123.993 295.569 124.067 297.527 124.385C297.516 125.852 297.527 127.318 297.527 128.787C294.9 130.886 291.526 131.304 288.387 131.016C287.119 130.864 285.662 130.353 285.127 128.933C284.655 127.633 284.711 125.816 285.844 124.956C286.956 124.143 288.343 124.078 289.63 124.004C290.285 123.994 290.944 123.993 291.601 123.993Z" fill="currentColor" fill-opacity="0.6"/>
<path d="M280.658 56C280.257 56.0001 279.838 56.0551 279.448 56.0224C278.869 55.9702 278.267 56.1701 277.925 56.7169C276.582 58.4542 275.237 60.1901 273.892 61.9255C273.745 62.1046 273.649 62.3095 273.612 62.5528C274.329 62.6286 275.053 62.631 275.774 62.5975C276.26 62.6078 276.644 62.2216 276.972 61.8694C278.45 60.2741 279.926 58.6803 281.397 57.0752C281.612 56.867 281.706 56.5585 281.8 56.2687C281.441 56.0469 281.058 55.9997 280.658 56ZM157.151 56.6836C156.784 56.7008 156.396 56.695 156.053 56.8628C155.616 57.1352 155.636 57.7673 155.616 58.2517C155.615 68.8938 155.616 79.5356 155.616 90.1757C155.63 90.5279 155.622 90.9202 155.841 91.2063C156.145 91.5078 156.583 91.461 156.961 91.4863C162.382 91.4863 167.802 91.4864 173.225 91.4863C173.638 91.476 174.246 91.4949 174.379 90.9375C174.459 90.3032 174.452 89.6581 174.401 89.022C174.371 88.4733 173.798 88.4006 173.415 88.3947C168.589 88.381 163.768 88.3906 158.943 88.3833C158.947 83.8949 158.938 79.4076 158.943 74.9192C162.189 74.9295 165.432 74.9123 168.677 74.9192C169.489 74.9329 170.351 74.808 171.03 74.2807C171.656 73.804 172.021 72.8956 171.836 72.0628C171.6 71.8081 171.255 71.8316 170.951 71.8276C166.947 71.8276 162.937 71.8345 158.932 71.8276C158.946 67.8101 158.928 63.7905 158.944 59.7749C163.242 59.7835 167.547 59.7852 171.848 59.7749C172.89 59.7629 174.091 59.3469 174.547 58.2067C174.683 57.7807 174.849 57.1971 174.547 56.8178C174.236 56.6834 173.9 56.6931 173.573 56.6833C168.099 56.6902 162.625 56.6836 157.151 56.6836ZM214.973 68.0868C212.275 68.0433 209.478 68.6362 207.356 70.5736C205.06 72.6261 204.07 75.9656 203.939 79.1426C203.787 82.2243 204.164 85.6089 206.045 88.0253C207.92 90.4552 210.894 91.3115 213.662 91.4866C216.904 91.6461 220.246 91.2724 223.251 89.8287C224.307 89.3754 225.111 88.2097 225.065 86.9276C225.097 86.5891 224.81 86.2264 224.494 86.3451C223.658 86.592 222.86 86.9893 222.03 87.2636C219.364 88.2422 216.52 88.5568 213.729 88.2942C212.005 88.1171 210.181 87.5924 208.946 86.1547C207.848 84.8901 207.44 83.1096 207.3 81.4053C212.738 81.395 218.17 81.4145 223.609 81.3938C224.37 81.4426 225.109 80.8058 225.121 79.9264C225.251 77.1268 224.726 74.1651 223.161 71.9062C221.51 69.4919 218.766 68.3449 216.115 68.1426C215.736 68.1122 215.358 68.0926 214.973 68.0868ZM256.25 68.0983C255.633 68.0983 255.02 68.1276 254.413 68.1991C251.867 68.524 249.353 69.8253 247.737 72.086C245.799 74.7553 245.229 78.3749 245.575 81.7192C245.842 84.6375 247.091 87.5049 249.249 89.2578C251.874 91.4095 255.337 91.847 258.49 91.3412C260.909 90.9657 263.244 89.5962 264.64 87.3199C264.596 90.2518 264.748 93.4403 263.251 96.0122C262.053 98.166 259.77 99.1869 257.583 99.395C254.283 99.7044 250.886 99.2599 247.815 97.8492C247.354 97.6664 246.903 97.2824 246.393 97.4012C245.962 97.7708 246.091 98.4709 246.191 98.9806C246.467 100.051 247.443 100.571 248.286 100.986C251.157 102.312 254.329 102.531 257.404 102.397C260.163 102.243 263.078 101.431 265.088 99.1934C267.1 96.9541 267.793 93.6646 267.821 90.5907C267.836 83.7327 267.825 76.883 267.832 70.0249C267.822 69.5736 267.844 69.1034 267.72 68.6696C267.552 68.4419 267.282 68.4039 267.037 68.4231C266.304 68.4535 265.47 68.6548 265.043 69.3864C264.503 70.2891 264.621 71.4284 264.618 72.4556C263.827 71.2241 262.795 70.1881 261.593 69.4761C259.958 68.4911 258.1 68.1065 256.25 68.0983ZM293.17 68.1327C292.309 68.1327 291.452 68.1809 290.605 68.256C289.127 68.4465 287.618 68.6322 286.214 69.2081C285.266 69.5855 284.861 70.7864 284.993 71.8292C285.108 72.2806 285.583 72.111 285.889 72.0644C288.683 71.2706 291.6 70.8667 294.48 71.1683C296.009 71.3531 297.678 71.9461 298.524 73.487C299.487 75.2438 299.047 77.3794 299.162 79.3229C297.081 79.0446 294.985 78.9206 292.89 78.8973C290.963 78.8669 289.011 78.9047 287.143 79.4797C286.005 79.8338 284.872 80.4532 284.164 81.5408C283.317 82.8171 283.22 84.4941 283.368 86.0214C283.5 87.5564 284.158 89.061 285.295 89.9754C286.773 91.1661 288.656 91.4575 290.436 91.51C293.443 91.549 296.619 91.037 299.129 89.0681C299.232 89.6324 299.325 90.2551 299.711 90.6811C300.292 91.3387 301.185 91.4666 301.974 91.3868C302.353 91.3364 302.387 90.8215 302.388 90.4907C302.399 85.693 302.382 80.8853 302.388 76.0857C302.402 74.79 302.239 73.4631 301.705 72.2996C301.093 70.9066 299.962 69.8642 298.703 69.2417C296.958 68.395 295.063 68.1371 293.17 68.1327ZM240.12 68.2674C238.943 68.2622 237.759 68.5108 236.726 69.1524C235.367 69.9967 234.437 71.5033 233.914 73.1064C233.829 72.0811 234.029 70.9911 233.623 70.0261C233.324 69.2868 232.596 68.9126 231.909 68.8387C231.533 68.8118 231.075 68.6833 230.778 69.0179C230.648 69.3896 230.665 69.8011 230.655 70.1941C230.662 76.877 230.646 83.5636 230.655 90.2446C230.66 90.7232 230.701 91.4252 231.248 91.4991C231.955 91.5888 232.698 91.6238 233.399 91.4768C233.81 91.3601 233.882 90.8266 233.881 90.4238C233.903 87.2079 233.878 83.9954 233.903 80.7794C233.976 78.4409 234.288 75.9871 235.482 74.0026C236.381 72.4735 237.964 71.5186 239.593 71.4039C240.831 71.2402 242.054 71.578 243.267 71.7959C243.841 71.816 243.675 71.0079 243.682 70.5974C243.675 69.4048 242.71 68.5838 241.722 68.4243C241.203 68.3335 240.664 68.2703 240.131 68.2675L240.12 68.2674ZM190.531 68.4131C189.995 68.4062 189.467 68.4308 188.941 68.4803C186.645 68.706 184.341 69.8545 182.97 71.9751C182.975 71.193 183.001 70.331 182.567 69.6676C182.039 68.8504 181.032 68.6942 180.192 68.7603C179.748 68.8183 179.761 69.3705 179.756 69.746C179.747 76.5593 179.757 83.3754 179.756 90.1886C179.757 90.6458 179.785 91.2963 180.282 91.4207C180.985 91.5452 181.715 91.5308 182.421 91.4322C182.874 91.3641 182.976 90.8035 182.97 90.3793C182.982 86.4863 182.967 82.5893 182.97 78.6962C182.848 76.8071 183.367 74.826 184.561 73.4428C185.687 72.1101 187.358 71.5511 188.963 71.4713C190.394 71.4069 191.922 71.586 193.141 72.4906C194.117 73.2125 194.718 74.4203 194.933 75.683C195.176 77.1305 195.067 78.6128 195.09 80.074C195.092 83.4475 195.087 86.8153 195.09 90.1888C195.105 90.5877 195.085 91.099 195.426 91.3538C195.923 91.5775 196.472 91.493 196.994 91.5106C197.367 91.4802 197.811 91.5318 198.092 91.1969C198.281 90.8293 198.259 90.3918 198.271 89.9872C198.266 86.4852 198.262 82.9822 198.26 79.4803C198.25 77.7215 198.352 75.9282 197.969 74.2044C197.605 72.364 196.631 70.6387 195.157 69.6679C193.763 68.7399 192.141 68.4294 190.531 68.4131ZM275.617 68.7491C275.397 68.7489 275.177 68.7887 274.979 68.9059C274.77 69.116 274.827 69.475 274.799 69.7572C274.791 76.5062 274.806 83.2583 274.799 90.0093C274.81 90.3789 274.79 90.7699 274.934 91.1182C275.138 91.5112 275.598 91.4831 275.953 91.5103C276.495 91.5 277.059 91.5712 277.589 91.4095C278.024 91.2266 278.01 90.6389 278.025 90.2109C278.024 83.9152 278.024 77.6099 278.014 71.3142C278.035 70.3375 277.619 69.2537 276.715 68.9619C276.369 68.8694 275.985 68.7498 275.617 68.7491ZM214.704 71.0454C216.643 71.0253 218.74 71.5378 220.148 73.1176C221.456 74.5437 221.936 76.6297 222.018 78.6063H207.3C207.513 76.5577 208.13 74.4395 209.529 73.0056C210.9 71.5465 212.854 71.0239 214.704 71.0454ZM256.799 71.2357C258.379 71.2357 259.97 71.5953 261.335 72.5015C262.946 73.5598 264.062 75.4072 264.494 77.4189C265.057 79.9851 264.799 82.8706 263.43 85.0806C262.311 86.9056 260.404 87.9685 258.468 88.2506C256.34 88.5715 254.049 88.3663 252.173 87.1193C250.557 86.0512 249.47 84.1492 249.126 82.1123C248.718 79.7503 248.912 77.1721 249.999 75.0554C251.061 72.9503 253.113 71.6585 255.231 71.3589C255.747 71.2851 256.272 71.2363 256.799 71.2357ZM293.058 81.597C295.095 81.617 297.144 81.6583 299.162 81.989C299.152 83.4618 299.156 84.9408 299.162 86.4136C296.552 88.4953 293.188 88.9057 290.067 88.6315C288.839 88.4895 287.453 88.0346 286.841 86.7272C286.398 85.6824 286.329 84.3663 286.829 83.3332C287.268 82.4831 288.149 82.0886 288.969 81.8882C290.314 81.5711 291.69 81.6027 293.058 81.597Z" fill="currentColor" fill-opacity="0.6"/>
<path d="M65.1414 24.9492C64.9173 24.9661 64.4599 25.0066 64.2358 25.0213C54.1609 27.5084 45.0714 33.7642 39.2113 42.3415C38.8382 42.3118 38.4644 42.2926 38.0902 42.2841C35.4917 42.2865 32.9191 42.8007 30.5194 43.7975C28.1198 44.7943 25.94 46.254 24.1047 48.0934C22.2693 49.9327 20.8144 52.1156 19.8229 54.5174C18.8315 56.9191 18.3229 59.4927 18.3264 62.091C18.336 66.6255 19.9034 71.019 22.766 74.5358C25.6287 78.0526 29.6128 80.4792 34.0512 81.4092C35.9098 86.4072 38.5298 91.1509 42.0429 95.1791C49.185 103.535 59.6457 108.843 70.5603 109.941C71.0878 109.422 71.6321 108.909 72.242 108.489C64.0164 108.007 55.9631 104.981 49.4166 99.9799C43.297 95.3274 38.564 88.9028 35.8479 81.711C36.6018 81.7977 37.3601 81.8409 38.1189 81.8404C43.3644 81.8394 48.3946 79.7553 52.1036 76.0464C55.8125 72.3374 57.8965 67.3073 57.8971 62.0623V62.0335C57.8821 57.2994 56.1696 52.7277 53.0706 49.1486C49.9716 45.5696 45.6916 43.2206 41.008 42.5283C46.8033 34.4628 55.5549 28.6394 65.2133 26.358C65.1794 25.89 65.1642 25.4172 65.1414 24.9492ZM94.478 28.4851C94.3617 29.0041 94.2459 29.5297 94.0899 30.0374C98.1148 32.1647 101.785 34.9371 104.942 38.216C105.552 38.8769 106.558 38.0247 106.149 37.2674C102.817 33.685 98.8262 30.723 94.478 28.4851ZM3.63655 33.329C3.15801 33.3298 2.68433 33.4249 2.24256 33.6089C1.8008 33.7928 1.3996 34.062 1.06189 34.401C0.724187 34.7401 0.456589 35.1423 0.274387 35.5848C0.0921857 36.0273 -0.00104941 36.5014 8.90957e-06 36.9799C0.000838174 37.4584 0.0959424 37.9321 0.279888 38.3739C0.463834 38.8156 0.733016 39.2168 1.07206 39.5546C1.4111 39.8923 1.81335 40.1599 2.25584 40.3421C2.69833 40.5243 3.17239 40.6175 3.65092 40.6164C4.61487 40.6148 5.53887 40.2311 6.22049 39.5495C6.90211 38.8679 7.28577 37.9439 7.28745 36.9799V36.9652C7.28657 36.4867 7.19143 36.013 7.00747 35.5713C6.8235 35.1296 6.55431 34.7284 6.21528 34.3908C5.87624 34.0531 5.474 33.7855 5.03154 33.6033C4.58907 33.4212 4.11505 33.3279 3.63655 33.329ZM91.5314 34.4789C91.4681 34.5613 91.4239 34.6562 91.3589 34.7376C88.5849 37.9938 84.3699 40.0207 80.0756 39.9696C76.5868 40.0463 73.1001 38.7749 70.4453 36.52C70.4188 36.4986 70.3996 36.4699 70.3731 36.4478C68.093 38.2659 66.2523 40.5749 64.9881 43.2029C63.7238 45.8309 63.0687 48.7102 63.0713 51.6264C63.0752 56.7689 65.1218 61.6993 68.7608 65.3329C72.3998 68.9665 77.3332 71.0058 82.4757 71.0021C87.6183 71.002 92.5501 68.9591 96.1865 65.3228C99.8228 61.6864 101.866 56.7546 101.866 51.612V51.5686C101.856 48.0504 100.889 44.6012 99.068 41.5906C97.2475 38.58 94.6424 36.122 91.5314 34.4789ZM86.6731 137.698C85.7504 137.764 84.8871 138.178 84.2575 138.855C83.6278 139.533 83.2788 140.424 83.2809 141.349C83.2812 142.317 83.6659 143.246 84.3505 143.931C85.0352 144.615 85.9636 145 86.9318 145C87.9001 145 88.8285 144.615 89.5132 143.931C90.1978 143.246 90.5825 142.317 90.5828 141.349V141.334C90.5787 140.369 90.1923 139.444 89.5081 138.762C88.8239 138.081 87.8976 137.698 86.9318 137.698C86.8456 137.695 86.7593 137.695 86.6731 137.698Z" fill="currentColor"/>
<path d="M84.0714 0.0109226C83.0248 -0.156428 83.0217 1.6565 84.0567 1.53453C97.525 2.07012 110.301 9.7436 117.475 21.0971C115.366 21.9985 113.568 23.499 112.303 25.4127C111.038 27.3264 110.363 29.5691 110.36 31.8629C110.361 33.4023 110.665 34.9264 111.255 36.3482C111.845 37.77 112.709 39.0617 113.799 40.1495C114.888 41.2373 116.18 42.0999 117.603 42.6881C119.026 43.2763 120.55 43.5785 122.089 43.5775C123.629 43.5766 125.153 43.2725 126.575 42.6826C127.996 42.0927 129.288 41.2285 130.376 40.1394C131.464 39.0502 132.326 37.7575 132.915 36.3349C133.503 34.9124 133.805 33.3879 133.804 31.8486V31.8338C133.798 28.7275 132.56 25.7504 130.361 23.5566C128.161 21.3627 125.181 20.1316 122.075 20.1337C121.031 20.1344 119.992 20.2746 118.985 20.5505C111.583 8.59874 98.1757 0.484806 84.0714 0.0109226ZM41.7985 20.1915C40.4779 20.1944 39.2124 20.7212 38.2799 21.6564C37.3474 22.5916 36.8242 23.8586 36.8252 25.1792C36.8247 25.8343 36.9534 26.4831 37.2039 27.0884C37.4544 27.6938 37.8217 28.2438 38.285 28.7071C38.7482 29.1703 39.2983 29.5377 39.9036 29.7882C40.5089 30.0386 41.1577 30.1673 41.8129 30.1668C42.468 30.1673 43.1168 30.0386 43.7221 29.7882C44.3275 29.5377 44.8775 29.1703 45.3407 28.7071C45.804 28.2438 46.1713 27.6938 46.4218 27.0884C46.6723 26.4831 46.801 25.8343 46.8005 25.1792V25.1645C46.7991 24.5094 46.6685 23.861 46.4162 23.2564C46.164 22.6518 45.795 22.1029 45.3304 21.641C44.8659 21.1792 44.3148 20.8134 43.7088 20.5647C43.1027 20.316 42.4536 20.1892 41.7985 20.1915ZM113.854 75.3576C109.453 75.3638 105.234 77.1177 102.126 80.2337C99.0185 83.3497 97.2755 87.5726 97.2808 91.9735C97.2869 96.3745 99.0409 100.593 102.157 103.701C105.273 106.809 109.496 108.552 113.897 108.546C118.295 108.544 122.513 106.796 125.623 103.685C128.733 100.575 130.482 96.3576 130.484 91.9592V91.9158C130.474 87.5148 128.716 83.298 125.598 80.1928C122.479 77.0875 118.255 75.3485 113.854 75.3576Z" fill="currentColor" fill-opacity="0.8"/>
<path d="M79.7461 10.6905C71.5501 10.7074 64.9176 17.2884 64.9269 25.3947C64.9336 33.5008 71.579 40.069 79.7749 40.0702C87.9764 40.069 94.6241 33.4921 94.6228 25.3803V25.3516C94.6081 17.2399 87.9476 10.676 79.7461 10.6905ZM19.7505 67.8257C18.3643 73.8742 18.0456 80.1961 19.0174 86.339C19.5358 86.2569 20.0592 86.2089 20.5842 86.1952C19.7849 81.0247 19.7933 75.7253 20.771 70.5855C20.3739 69.688 20.0256 68.77 19.7505 67.8257ZM91.9062 90.5217C89.5196 90.7118 87.1737 91.4669 85.1506 92.764C80.5131 95.6345 77.7558 101.22 78.3231 106.649C81.3467 106.586 84.3943 107.771 86.5017 109.955C89.0602 112.454 90.2567 116.221 89.6639 119.743C93.8675 120.753 98.4986 119.82 101.953 117.214C105.068 114.865 107.337 111.268 107.717 107.353C101.372 104.747 97.057 97.9723 97.4257 91.111C96.406 90.8019 95.3536 90.6051 94.2922 90.5217C93.4962 90.4591 92.7018 90.4584 91.9062 90.5217ZM29.4814 105.413C29.124 105.802 28.7398 106.167 28.3315 106.505C30.0872 108.641 32.0645 110.597 34.2247 112.327C31.0974 115.138 29.3106 119.146 29.309 123.351C29.3169 131.538 35.9558 138.17 44.1426 138.17C52.3349 138.17 58.9762 131.529 58.9762 123.337V123.308C58.9603 115.116 52.3062 108.487 44.1138 108.503C40.9811 108.513 37.932 109.514 35.4034 111.364C33.3137 109.503 31.2082 107.625 29.4814 105.413Z" fill="currentColor" fill-opacity="0.6"/>
<path d="M100.624 45.0336C109.165 52.482 114.267 63.5838 114.889 74.8613C115.189 74.8301 115.493 74.8443 115.796 74.9039C114.798 74.8784 113.797 74.9067 112.798 74.9067C112.963 74.7762 113.13 74.6486 113.303 74.5238C112.909 68.2837 111.088 62.1372 108.019 56.6884C106.181 53.4776 104.017 50.3916 101.305 47.8615C101.038 46.9283 100.834 45.981 100.624 45.0336Z" fill="currentColor" fill-opacity="0.4"/>
<path d="M28.5874 79.1018C29.1206 79.3117 29.6596 79.5244 30.1786 79.7712C30.7799 90.9268 36.2996 101.651 44.8088 108.85C44.0742 108.89 43.3424 108.93 42.6106 108.975C34.2234 101.41 29.0157 90.3936 28.5874 79.1018Z" fill="currentColor" fill-opacity="0.4"/>
<path d="M57.7929 117.912C57.4979 117.286 57.0469 116.71 56.9731 116.003C60.2804 117.203 63.7181 118.051 67.2154 118.463C67.2466 118.965 67.2949 119.464 67.3658 119.966C64.1067 119.725 60.8846 118.965 57.7929 117.912Z" fill="currentColor" fill-opacity="0.4"/>
<path d="M20.4108 86.1953C17.2968 86.202 14.3129 87.4182 12.1139 89.5767C9.91491 91.7353 8.68059 94.6599 8.68189 97.7086C8.68449 100.76 9.92447 103.685 12.1293 105.841C14.334 107.997 17.3232 109.208 20.4395 109.207C23.556 109.204 26.5436 107.99 28.7457 105.831C30.9478 103.672 32.1841 100.745 32.1828 97.6942V97.6795C32.1762 94.6285 30.9325 91.705 28.7251 89.5515C26.5176 87.3981 23.5271 86.1908 20.4108 86.1953ZM63.1149 87.3164C62.431 87.3169 61.7539 87.4493 61.1223 87.706C60.4907 87.9627 59.9169 88.3387 59.4337 88.8126C58.9505 89.2864 58.5674 89.8488 58.3063 90.4676C58.0451 91.0864 57.911 91.7495 57.9116 92.4191C57.911 93.0886 58.0451 93.7517 58.3063 94.3705C58.5674 94.9893 58.9505 95.5517 59.4337 96.0255C59.9169 96.4994 60.4907 96.8754 61.1223 97.1321C61.7539 97.3888 62.431 97.5212 63.1149 97.5217C63.7988 97.5212 64.4759 97.3888 65.1075 97.1321C65.7391 96.8754 66.3129 96.4994 66.7961 96.0255C67.2793 95.5517 67.6624 94.9893 67.9235 94.3705C68.1847 93.7517 68.3188 93.0886 68.3182 92.4191V92.4043C68.3155 91.0546 67.7663 89.761 66.7909 88.8071C65.8155 87.8533 64.4935 87.3174 63.1149 87.3164ZM78.7966 106.433C75.6801 106.436 72.6925 107.651 70.4904 109.81C68.2883 111.969 67.052 114.896 67.0533 117.947C67.0546 119.459 67.3601 120.955 67.9525 122.352C68.5449 123.748 69.4125 125.016 70.5057 126.084C71.599 127.152 72.8964 127.998 74.3239 128.575C75.7514 129.152 77.281 129.448 78.8253 129.446C81.9392 129.443 84.9246 128.23 87.1263 126.074C89.328 123.918 90.566 120.995 90.5686 117.947V117.918C90.5621 114.867 89.3184 111.943 87.111 109.79C84.9035 107.636 81.9129 106.429 78.7966 106.433Z" fill="currentColor"/>
</svg>
