<svg width="139" height="139" viewBox="0 0 139 139" fill="none" xmlns="http://www.w3.org/2000/svg">
<path d="M58.2111 0.854888C63.2601 -0.00792062 68.3641 -0.144136 73.4513 0.122467C82.0814 0.574775 90.344 2.65911 98.2062 6.28653C106.334 10.0366 113.485 15.1474 119.638 21.6459C126.163 28.5379 131.067 36.4407 134.367 45.3422C135.94 49.583 137.046 53.9432 137.788 58.3979C138.573 63.109 138.782 67.8682 138.543 72.6215C137.831 86.7696 133.269 99.5928 124.735 110.902C115.321 123.376 103.014 131.744 87.9855 136.056C84.7273 136.991 81.3934 137.585 78.0265 138.049C73.814 138.631 69.5815 138.718 65.3742 138.472C51.3539 137.652 38.6927 133.01 27.4747 124.513C18.0374 117.365 10.9169 108.366 6.04994 97.5902C3.63803 92.25 1.9056 86.6874 1.01674 80.8842C0.707755 78.8668 0.481053 76.8356 0.260877 74.8061C0.156654 73.8452 0.156964 72.8729 0.117322 71.7875C0.117371 70.0505 0.110103 68.4315 0.102674 66.8129C0.39874 56.1057 3.18152 46.0577 8.19545 36.6225C11.1296 31.101 14.7854 26.0913 19.1017 21.5551C26.0914 14.2091 34.299 8.67704 43.6915 4.88809C48.3783 2.99748 53.2348 1.70528 58.2111 0.854888ZM72.3029 9.63711C70.0711 9.52604 67.8212 9.62663 65.5871 9.75723C63.4655 9.88126 61.3338 10.0549 59.2413 10.4106C53.9006 11.3184 48.7737 12.9351 43.8634 15.2543C35.6898 19.1148 28.7686 24.5659 23.0402 31.5356C19.3528 36.0219 16.4085 40.9648 14.172 46.3275C11.5039 52.7253 10.0445 59.3958 9.59193 66.393C9.57904 68.2842 9.56415 70.1755 9.55678 72.0668C9.55648 72.1419 9.62021 72.2177 9.65931 72.4086C9.70023 72.8889 9.72607 73.371 9.78529 73.849C10.0312 75.8336 10.2311 77.8262 10.5499 79.7992C11.3681 84.8611 12.9393 89.6988 15.0949 94.3432C18.9054 102.553 24.3031 109.547 31.2697 115.33C36.0891 119.331 41.4187 122.469 47.2267 124.801C51.3839 126.471 55.6823 127.64 60.1056 128.323C62.0149 128.617 63.9434 128.904 65.8693 128.956C69.6254 129.059 73.3812 129.05 77.1261 128.512C80.0279 128.095 82.8976 127.562 85.7062 126.745C96.9285 123.479 106.439 117.499 114.181 108.72C119.001 103.254 122.678 97.1134 125.254 90.2982C127.585 84.1331 128.819 77.7544 129.023 71.1791C129.084 69.1979 129.007 67.2081 128.904 65.227C128.739 62.0443 128.254 58.9018 127.522 55.7982C124.554 43.2279 118.185 32.7015 108.484 24.1947C102.809 19.2195 96.3793 15.5209 89.2765 12.9779C83.7847 11.0118 78.1144 9.92638 72.3029 9.63711ZM42.9201 92.7572C42.7225 92.8 42.4642 92.8804 42.2062 92.8793C41.2136 92.8747 40.2207 92.8435 39.1828 92.7943C40.378 92.7631 41.6186 92.7602 42.9201 92.7572ZM33.1788 36.058C35.4986 36.116 37.8178 35.7336 39.9738 36.8627C41.7347 37.785 42.5972 39.3133 42.8322 41.227C42.9271 42 42.9568 42.7851 42.9601 43.5648C42.9739 46.806 42.9667 50.0473 42.9669 53.2885C42.9669 53.4919 42.9669 53.696 42.9669 53.8832C44.1431 53.3236 45.2571 52.7289 46.4201 52.2543C48.3827 51.4535 50.4329 51.0548 52.5597 50.8979C55.0851 50.7115 57.5929 50.7364 60.0109 51.4613C65.1613 53.0055 68.2463 56.4778 69.1417 61.7992C69.3501 63.0373 69.3932 64.3141 69.4015 65.5736C69.461 74.5921 69.4919 83.611 69.464 92.6908C68.9997 92.7537 68.6023 92.7454 68.2062 92.7592C68.6022 92.7454 68.9994 92.7533 69.4533 92.7484C69.3205 92.7917 69.131 92.8764 68.9406 92.8783C67.9937 92.8876 67.0462 92.8753 66.0402 92.8637C66.3324 92.8465 66.6353 92.8296 66.9445 92.8139C66.6233 92.8288 66.3018 92.8424 65.9806 92.8568C62.6248 92.6106 60.0539 91.1716 59.7413 87.1898C59.7414 87.1705 59.7413 87.1506 59.7413 87.1313C59.6975 86.9276 59.6273 86.6628 59.6271 86.3979C59.6209 79.7424 59.6226 73.0869 59.631 66.3725C59.6648 66.4789 59.712 66.6183 59.7335 66.766C59.7124 66.6151 59.6664 66.4639 59.6388 66.3129C59.516 65.3774 59.4527 64.4294 59.2579 63.5092C58.8547 61.6041 57.6491 60.4444 55.7462 60.0541C51.9663 59.2791 48.3332 59.6185 44.9669 61.6342C44.0905 62.159 43.3387 62.8504 43.0538 64.0111C43.0271 64.1498 43.0066 64.2663 42.9923 64.3715C43.0059 64.274 43.026 64.1716 43.0499 64.059C43.0871 70.8052 43.0939 77.5932 43.0939 84.3813C43.0939 87.1087 43.0781 89.8365 43.0441 92.6117C43.0182 92.5119 42.9965 92.3939 42.9835 92.269C42.9942 92.399 43.0083 92.5295 43.0187 92.6596C43.018 92.6635 43.0073 92.7133 42.9347 92.7348C41.6186 92.7601 40.3775 92.763 39.1369 92.766C37.1137 92.6787 35.3782 92.0014 34.1954 90.2709C33.4975 89.2497 33.194 88.0643 33.1925 86.8559C33.1725 70.0982 33.1788 53.3402 33.1788 36.5824V36.058ZM96.798 92.7523C96.7909 92.7933 96.7252 92.8738 96.6603 92.8734C95.059 92.8634 93.4577 92.845 91.8107 92.7992C93.4231 92.7652 95.0816 92.7597 96.798 92.7523ZM106.721 51.5375C108.891 51.2468 110.864 51.6597 112.718 52.7748C112.77 52.8065 112.813 52.8545 112.898 52.9272C112.255 54.5401 111.616 56.1622 110.965 57.7797C106.315 69.3352 101.661 80.89 97.0089 92.4447C96.9777 92.5221 96.9398 92.5969 96.8224 92.7133C95.0814 92.7592 93.423 92.7646 91.7648 92.7699C88.8919 92.6898 87.0666 91.4025 86.0187 88.7338C81.3978 76.9652 76.7733 65.1974 72.1515 53.4291C72.0462 53.1611 71.9533 52.8881 71.8048 52.4809C73.1635 52.1649 74.4531 51.7572 75.7726 51.5912C76.886 51.4511 78.0557 51.4607 79.1632 51.6371C80.9228 51.9175 82.2146 53.0165 82.9796 54.5902C83.7602 56.196 84.4402 57.8598 85.0431 59.5414C87.4878 66.3602 89.8859 73.1961 92.3029 80.0248C92.3445 80.1423 92.4091 80.2522 92.4913 80.4252C93.6678 77.2071 94.8218 74.0464 95.9777 70.8871C97.6712 66.2585 99.3297 61.6162 101.085 57.0111C101.546 55.8026 102.228 54.6546 102.955 53.5775C103.829 52.2821 105.168 51.7456 106.721 51.5375ZM9.6222 66.35C9.65912 68.2628 9.66507 70.2181 9.66224 72.2328C9.62003 72.217 9.55648 72.1418 9.55678 72.0668C9.56415 70.1754 9.57805 68.2838 9.6222 66.35ZM0.0714239 66.8559C0.109203 68.4313 0.116734 70.0499 0.113416 71.7279C0.0666066 71.3121 0.0011126 70.837 0.000134796 70.3617C-0.00218127 69.2076 0.0255009 68.0532 0.0714239 66.8559Z" fill="currentColor"/>
</svg>
