<svg width="280" height="34" viewBox="0 0 280 34" fill="none" xmlns="http://www.w3.org/2000/svg">
<path d="M219.693 32.882V28.6402L223.972 28.1511C225.46 27.9744 226.097 26.6139 226.273 26.3015L236.96 8.8946C237.831 7.53 236.985 6.31747 235.858 6.19006L230.227 5.54064V1.23309H254.601C255.962 1.23309 256.833 2.17845 257.404 2.98406L271.638 24.7396C272.756 26.4906 273.619 27.8511 275.046 28.0278L279.526 28.5252V32.882H252.147V28.5991L255.625 28.1881C257.293 27.9991 258.658 27.2387 257.293 25.2082L255.978 23.2147H236.537L235.049 25.6357C234.116 27.1153 235.049 27.9991 236.471 28.1881L239.956 28.5991V32.882H219.693ZM240.039 17.6042H252.332L246.126 7.84238L240.039 17.6042Z" fill="currentColor"/>
<path d="M201.53 1.23309H170.189V5.54064L174.131 5.95166C175.582 6.1695 176.186 7.22995 176.186 8.66443V25.685C176.186 26.8646 175.693 27.9826 174.394 28.1717L170.164 28.7142V32.882L201.521 32.9026C215.957 32.9026 222.159 25.8864 222.159 16.6219C222.159 8.2945 215.957 1.24953 201.521 1.24953M196.696 26.8112H188.615V7.28749H196.696C204.399 7.28749 207.642 9.07956 207.642 17.0329C207.642 25.052 204.399 26.8112 196.696 26.8112Z" fill="currentColor"/>
<path d="M0 32.882H25.3603V28.6649L21.0198 28.1717C20.0293 28.0402 19.0305 27.4195 19.0305 25.2945V20.2101H38.55V25.0726C38.55 26.5111 38.3075 27.8716 36.6141 28.0607L32.2038 28.5375V32.882H57.5641V28.5375L53.088 28.0402C52.2207 27.9168 51.222 27.2181 51.222 25.4343V8.96448C51.222 7.28749 51.8344 6.15306 53.1497 6.03798L57.5641 5.54064V1.23309H32.2038V5.48309L36.6141 6.03798C38.1103 6.22705 38.55 7.40669 38.55 8.96448V13.8968H19.0305V8.8946C19.0305 7.02855 19.7744 6.15306 21.0856 6.01743L25.3603 5.54064V1.23309H0.0575435V5.54064L4.2911 6.03798C5.97631 6.22705 6.40788 7.46834 6.34623 9.07956V25.1095C6.34623 26.8975 5.84889 27.9662 4.23356 28.1552L0 28.6649V32.882Z" fill="currentColor"/>
<path d="M58.8096 16.9055C58.8096 6.98743 66.8287 0 84.7247 0C102.514 0 110.537 6.98743 110.537 16.9055C110.537 27.0989 102.514 34 84.7247 34C66.8287 34 58.8301 27.0989 58.8301 16.9055M84.6713 6.09961C77.4701 6.09961 73.3681 8.7795 73.3681 16.9753C73.3681 25.3068 77.4783 27.9826 84.6713 27.9826C91.8642 27.9826 95.9909 25.3068 95.9909 16.9753C95.9909 8.7795 91.8807 6.09961 84.6713 6.09961Z" fill="currentColor"/>
<path d="M111.939 32.882H132.202V28.6649L127.85 28.1717C126.616 28.0402 125.86 26.9961 125.86 25.5576V9.4536L142.712 31.649C143.033 32.0323 143.433 32.3412 143.885 32.5542C144.337 32.7671 144.831 32.879 145.33 32.882H161.229V8.8946C161.229 7.76428 161.521 6.23116 163.152 6.01743L167.571 5.52009V1.23309H147.307V5.48309L151.73 6.03798C153.28 6.22705 153.654 7.53 153.654 9.0138V24.6862L136.925 2.62236C136.637 2.19538 136.249 1.84546 135.795 1.60325C135.341 1.36105 134.834 1.23395 134.319 1.23309H111.939V5.54064L116.168 6.03798C117.656 6.25993 118.223 7.01622 118.223 9.07956V25.1095C118.223 27.0044 117.705 27.9127 116.111 28.1552L111.947 28.6485V32.882" fill="currentColor"/>
</svg>
