<svg width="344" height="105" viewBox="0 0 344 105" fill="none" xmlns="http://www.w3.org/2000/svg">
<path d="M129.063 0V28.2578H132.353V17.1831L135.314 14.5542L145.614 28.2578H149.48L137.691 12.2703L149.058 0H145.169L132.353 14.0101V0H129.063ZM164.712 0C160.536 0 157.308 1.24734 155.041 3.74009C152.772 6.23292 151.635 9.74162 151.635 14.2707C151.635 18.8395 152.771 22.3794 155.033 24.8856C157.295 27.3916 160.51 28.641 164.674 28.641C168.747 28.641 171.927 27.367 174.216 24.8166C176.502 22.2661 177.644 18.7626 177.644 14.309C177.644 9.84352 176.504 6.34001 174.223 3.80143C171.942 1.26429 168.773 0 164.712 0ZM183.297 0V28.2578H186.334V12.1937C186.334 9.87523 186.232 7.32106 186.027 4.53719H186.181L201.628 28.2578H205.379V0H202.303V16.2097C202.276 17.0209 202.311 18.3771 202.403 20.264C202.493 22.1525 202.553 23.2659 202.579 23.6133H202.426L187.009 0H183.297ZM212.358 0V28.2578H215.649V16.501H221.547L228.389 28.2578H232.277L224.6 15.5582C228.388 14.2432 230.283 11.7139 230.283 7.97838C230.283 5.30971 229.454 3.31339 227.798 1.98502C226.141 0.658063 223.581 0 220.113 0H212.358ZM246.551 0L235.422 28.2501H238.751L242.225 19.2677H253.554L257.074 28.2501H260.48L249.412 0H246.551ZM264.368 0V28.2578H272.199C276.956 28.2578 280.595 27.0251 283.129 24.556C285.661 22.0898 286.933 18.5217 286.933 13.8568C286.933 9.48887 285.711 6.0833 283.275 3.64815C280.837 1.21292 277.424 0 273.028 0H264.368ZM267.659 2.83576H272.429C276.078 2.83576 278.824 3.77309 280.675 5.64082C282.524 7.51005 283.451 10.2865 283.451 13.9718C283.451 17.7472 282.461 20.5981 280.491 22.525C278.517 24.4518 275.574 25.4144 271.655 25.4144H267.659V2.83576ZM215.649 2.875H219.921C222.357 2.875 224.127 3.29208 225.229 4.11661C226.331 4.94113 226.885 6.28786 226.885 8.15559C226.885 9.99825 226.341 11.3798 225.259 12.3019C224.176 13.2226 222.47 13.6815 220.151 13.6815H215.649V2.875ZM164.712 2.89069C167.831 2.89069 170.186 3.86115 171.777 5.79539C173.369 7.73113 174.162 10.5674 174.162 14.3103C174.162 18.0916 173.367 20.9525 171.769 22.8941C170.169 24.8358 167.806 25.8065 164.674 25.8065C161.567 25.8065 159.193 24.834 157.564 22.8865C155.932 20.9375 155.117 18.0783 155.117 14.3103C155.117 10.5925 155.932 7.75832 157.564 5.81074C159.193 3.86319 161.58 2.89069 164.712 2.89069ZM247.932 3.48083C248.381 5.09146 248.817 6.44996 249.243 7.55816L252.534 16.3106H243.391L246.712 7.55816C247.24 6.07608 247.646 4.71761 247.932 3.48083ZM135.528 38.2225L125.596 66.4803H132.054L134.109 59.7588H144.41L146.458 66.4803H152.916L142.937 38.2225H135.528ZM157.311 38.2225V66.4803H165.311C170.312 66.4803 174.136 65.2458 176.785 62.7708C179.434 60.2972 180.758 56.7309 180.758 52.0793C180.758 47.7114 179.484 44.3135 176.931 41.8783C174.379 39.4431 170.799 38.2225 166.185 38.2225H157.311ZM186.618 38.2225V66.4803H202.901V61.5292H192.616V54.2483H202.188V49.3355H192.616V43.1352H202.901V38.2225H186.618ZM209.214 38.2225V66.4803H214.567V53.1829C214.567 51.5723 214.452 48.8803 214.207 45.1049H214.383L226.678 66.4803H234.294V38.2225H228.902V51.5965C228.902 53.117 228.994 55.7189 229.186 59.3909H229.056L216.776 38.2225H209.214ZM248.714 38.2225L238.781 66.4803H245.239L247.295 59.7588H257.596L259.651 66.4803H266.102L256.123 38.2225H248.714ZM269.162 38.2225V56.4325C269.162 59.6671 270.174 62.2133 272.184 64.0737C274.194 65.937 277.017 66.8635 280.652 66.8635C283.061 66.8635 285.152 66.452 286.918 65.6142C288.683 64.7764 290.032 63.5689 290.968 61.9967C291.902 60.426 292.364 58.5971 292.364 56.5092V38.2225H286.389V55.4822C286.389 57.6735 285.951 59.2804 285.07 60.3029C284.186 61.3284 282.765 61.8435 280.805 61.8435C278.781 61.8435 277.331 61.3363 276.456 60.3183C275.578 59.3002 275.137 57.6986 275.137 55.5205V38.2225H269.162ZM298.477 38.2225V66.4803H314.76V61.5292H304.475V54.2483H314.047V49.3355H304.475V43.1352H314.76V38.2225H298.477ZM320.842 38.2225V66.4803H326.84V55.6354H330.031L336.773 66.4803H343.43C342.141 64.6243 339.363 60.524 335.108 54.1716C336.785 53.4372 338.081 52.4233 338.997 51.1289C339.911 49.833 340.37 48.3537 340.37 46.6914C340.37 43.8439 339.452 41.7203 337.609 40.3225C335.765 38.9246 332.922 38.2225 329.08 38.2225H320.842ZM139.271 42.4914C139.375 42.9554 139.539 43.5912 139.777 44.3921C140.015 45.19 141.088 48.6373 142.983 54.7311H135.613C137.624 48.225 138.846 44.1419 139.271 42.4914ZM252.449 42.4914C252.553 42.9554 252.724 43.5912 252.963 44.3921C253.201 45.19 254.274 48.6373 256.169 54.7311H248.798C250.809 48.225 252.023 44.1419 252.449 42.4914ZM163.301 43.1352H166.492C171.853 43.1352 174.538 46.1715 174.538 52.2402C174.538 58.4375 171.645 61.5292 165.871 61.5292H163.301V43.1352ZM326.84 43.1352H328.658C330.591 43.1352 332.015 43.4185 332.938 43.9859C333.859 44.5519 334.318 45.5059 334.318 46.8447C334.318 48.1982 333.87 49.1874 332.968 49.8184C332.067 50.4493 330.668 50.7687 328.773 50.7687H326.84V43.1352ZM137.315 75.6619C134.325 75.6619 131.984 76.3775 130.29 77.8079C128.593 79.2368 127.743 81.2029 127.743 83.7016C127.743 85.0286 128.002 86.1896 128.518 87.1812C129.032 88.1742 129.726 89.0469 130.589 89.7946C131.452 90.5409 132.749 91.321 134.477 92.1322C136.319 93.0085 137.537 93.6493 138.136 94.0483C138.736 94.4487 139.192 94.8583 139.501 95.2898C139.81 95.7213 139.969 96.2164 139.969 96.769C139.969 97.762 139.613 98.5122 138.911 99.0146C138.209 99.5185 137.197 99.7657 135.881 99.7657C134.786 99.7657 133.581 99.5919 132.261 99.2445C130.939 98.8957 129.32 98.2931 127.413 97.4435V103.015C129.734 104.15 132.404 104.717 135.421 104.717C138.695 104.717 141.247 103.978 143.083 102.51C144.921 101.041 145.844 99.0297 145.844 96.4778C145.844 94.6351 145.352 93.0796 144.372 91.8103C143.393 90.541 141.583 89.28 138.941 88.0166C136.943 87.0634 135.671 86.398 135.137 86.0315C134.602 85.6635 134.217 85.2902 133.971 84.8973C133.727 84.5042 133.603 84.0375 133.603 83.51C133.603 82.6589 133.902 81.9697 134.508 81.4407C135.114 80.9117 135.989 80.6513 137.124 80.6513C138.077 80.6513 139.045 80.7753 140.031 81.019C141.017 81.2642 142.264 81.6966 143.774 82.3142L145.707 77.6544C144.251 77.0234 142.854 76.5302 141.519 76.1829C140.184 75.8356 138.785 75.6619 137.315 75.6619ZM310.802 75.6619C306.174 75.6619 302.56 76.9421 299.949 79.494C297.339 82.0444 296.03 85.601 296.03 90.1625C296.03 94.8526 297.155 98.4476 299.405 100.954C301.653 103.461 304.91 104.717 309.176 104.717C310.853 104.717 312.495 104.594 314.1 104.357C315.706 104.117 317.415 103.701 319.232 103.107V88.4611H308.018V93.4428H313.379V99.3442C312.09 99.6012 310.818 99.7276 309.567 99.7276C307.17 99.7276 305.34 98.9223 304.083 97.3057C302.825 95.6892 302.204 93.3453 302.204 90.2777C302.204 87.3401 302.983 84.9965 304.544 83.2573C306.102 81.5181 308.174 80.6515 310.764 80.6515C312.993 80.6515 315.145 81.1683 317.207 82.1997L319.193 77.4019C316.498 76.2434 313.703 75.6619 310.802 75.6619ZM175.788 76.4513V104.717H181.786V76.4513H175.788ZM148.989 76.4592V81.4409H156.667V104.717H162.665V81.4409H170.342V76.4592H148.989ZM188.635 76.4592V104.717H194.533V93.5411H204.121V88.6514H194.533V81.3627H204.842V76.4577L188.635 76.4592ZM208.815 76.4592V81.4409H216.492V104.717H222.49V81.4409H230.16V76.4592H208.815ZM234.785 76.4592V94.2554C234.785 97.49 235.789 100.042 237.8 101.904C239.811 103.766 242.64 104.694 246.275 104.694C248.684 104.694 250.769 104.275 252.534 103.437C254.299 102.601 255.649 101.392 256.583 99.8196C257.519 98.2488 257.987 96.4199 257.987 94.332V76.4592H252.012V93.3127C252.012 95.504 251.569 97.108 250.685 98.1334C249.801 99.1575 248.387 99.6663 246.428 99.6663C244.405 99.6663 242.948 99.1592 242.072 98.1411C241.195 97.123 240.76 95.529 240.76 93.351V76.4592H234.785ZM265.097 76.4592V104.717H270.451V91.412C270.451 89.8013 270.328 87.1093 270.083 83.334H270.259L282.554 104.717H290.178V76.4592H284.778V89.8332C284.778 91.3537 284.878 93.948 285.07 97.6199H284.931L272.659 76.4592H265.097Z" fill="currentColor"/>
<path d="M0 0V104.716H36.0028L96.1123 0H0ZM104.756 23.1688L79.7216 66.7779H104.756V23.1688ZM69.6663 84.2981L57.9466 104.716H104.756V84.2981H69.6663Z" fill="currentColor"/>
</svg>
