<svg width="337" height="94" viewBox="0 0 337 94" fill="none" xmlns="http://www.w3.org/2000/svg">
<path d="M182.979 52.1186C174.843 48.9398 167.782 44.3241 162.479 37.4963C158.978 32.9886 156.216 27.9153 152.869 23.2784C148.852 17.7107 144.75 12.1803 140.312 6.94974C138.258 4.52924 135.323 2.85623 132.784 0.848665C132.543 0.658408 132.278 0.499023 132.098 0C133.731 0.108451 135.371 0.150301 136.995 0.336878C143.97 1.13812 150.784 2.72139 157.047 5.90357C161.022 7.92315 164.803 10.4267 168.383 13.0987C174.119 17.3804 177.794 23.4022 181.47 29.4273C185.451 35.9501 189.807 42.2241 194.925 47.9501C197.752 51.1123 200.724 54.0257 204.512 56.0111C204.621 56.0683 204.688 56.2068 205.031 56.6064C197.247 56.3851 190.043 54.903 182.979 52.1186Z" fill="currentColor"/>
<path d="M169.723 4.35247C169.501 3.77173 169.507 3.69711 170.008 3.7385C172.29 3.92675 174.595 4.00539 176.841 4.40729C183.437 5.58754 189.661 7.7793 195.361 11.4037C201.247 15.1464 205.833 20.0614 209.367 26.0568C213.892 33.732 218.857 41.1025 225.383 47.2658C226.897 48.6958 228.656 49.8665 230.479 51.2948C229.991 51.3373 229.566 51.4348 229.15 51.402C222.778 50.8993 216.573 49.6547 210.689 47.0778C201.881 43.2198 194.965 37.2528 190.168 28.8395C186.779 22.8958 182.832 17.3229 178.408 12.0918C175.894 9.11874 173.217 6.34544 169.723 4.35247Z" fill="currentColor"/>
<path d="M152.144 50.4882C144.396 47.9605 137.853 43.7164 132.713 37.5819C130.094 34.4563 128.064 30.8322 125.822 27.3979C122.373 22.1145 118.915 16.8302 114.469 12.3145C112.217 10.0268 109.724 7.97637 107.272 5.75703C107.957 5.75703 108.824 5.68439 109.676 5.76855C116.334 6.4265 122.782 7.94628 128.789 10.9472C136.169 14.6347 142.205 19.8581 146.458 27.0199C151.077 34.7977 156.016 42.3545 162.495 48.7455C164.203 50.431 166.259 51.7644 168.337 53.4028C162.754 53.2789 157.441 52.2741 152.144 50.4882Z" fill="currentColor"/>
<path d="M195.601 92.5774C195.94 92.7527 196.189 92.8783 196.438 93.0042C196.434 93.0773 196.431 93.15 196.428 93.223C194.64 93.223 192.853 93.223 190.872 93.223C193.646 91.7231 192.764 89.0301 193.089 86.8464C193.783 82.1801 194.139 77.4638 194.661 72.7711C194.721 72.2281 194.958 71.705 195.113 71.1727C195.277 71.1249 195.442 71.0769 195.606 71.0289C198.53 76.9778 201.454 82.9266 204.525 89.1738C207.461 82.9663 210.266 77.0341 213.072 71.1019C213.288 71.1422 213.505 71.1824 213.721 71.2227C213.951 72.8723 214.222 74.5173 214.404 76.1721C214.92 80.8651 215.392 85.5633 215.898 90.2575C216.042 91.5852 216.743 92.465 218.095 92.7542C218.442 92.8286 218.786 92.9194 219.109 93.3512C217.331 93.3512 215.551 93.3814 213.776 93.3101C213.57 93.3017 213.243 92.7418 213.215 92.4167C212.884 88.5714 212.605 84.7217 212.297 80.8743C212.223 79.941 212.095 79.012 211.951 77.7148C211.556 78.3411 211.306 78.6576 211.139 79.0131C209.21 83.1218 207.293 87.2368 205.372 91.3495C205.23 91.6527 205.119 91.981 204.924 92.2463C204.656 92.6119 204.321 92.9289 204.014 93.2667C203.706 92.9373 203.296 92.6579 203.104 92.2707C201.124 88.294 199.182 84.2989 197.223 80.3118C196.891 79.636 196.533 78.9735 195.892 78.3342C195.781 79.3802 195.643 80.4239 195.563 81.4722C195.325 84.6116 195.074 87.751 194.917 90.895C194.89 91.4279 195.302 91.9827 195.601 92.5774Z" fill="currentColor"/>
<path d="M22.1539 89.5783C21.8219 85.7197 21.4985 81.9924 21.1754 78.2649C21.0274 78.2273 20.8791 78.1896 20.731 78.1517C20.1878 79.2284 19.6166 80.2919 19.1064 81.3839C17.4074 85.0206 15.7428 88.6734 14.0262 92.3017C13.8443 92.6869 13.408 92.9519 13.0897 93.2727C12.8146 92.9646 12.455 92.6981 12.2775 92.3414C10.2563 88.2776 8.26486 84.1994 6.26008 80.1275C5.95362 79.5049 5.61987 78.8959 5.09489 77.8901C4.90998 79.3595 4.74126 80.3719 4.66204 81.3914C4.42912 84.3888 4.24232 87.39 4.01536 90.388C3.91995 91.6478 4.14577 92.6855 5.57207 93.2261C3.78236 93.2261 1.99262 93.2261 0 93.2261C2.80846 91.663 1.91233 88.9335 2.2395 86.6955C2.91527 82.0732 3.28103 77.4058 3.80216 72.7602C3.86278 72.2198 4.09912 71.6995 4.25399 71.1698C4.4182 71.1232 4.58242 71.0764 4.74663 71.0298C7.65779 76.9775 10.5689 82.9255 13.6313 89.1822C16.5701 82.9864 19.3893 77.0424 22.2085 71.0982C22.4014 71.1387 22.5942 71.1793 22.7868 71.2198C22.9463 72.0192 23.1674 72.8116 23.2556 73.6188C23.8636 79.1663 24.437 84.7177 25.0377 90.2658C25.1818 91.5955 25.8937 92.4679 27.2433 92.7559C27.5871 92.8295 27.9271 92.9212 28.2473 93.3497C26.4672 93.3497 24.6856 93.3799 22.9084 93.3084C22.7055 93.3003 22.4054 92.7404 22.3582 92.4067C22.2326 91.5162 22.2203 90.6099 22.1539 89.5783Z" fill="currentColor"/>
<path d="M325.164 84.4236C322.729 81.8268 320.366 79.3028 318.003 76.7791C317.883 76.8165 317.765 76.8541 317.644 76.8915C317.644 79.4 317.612 81.909 317.656 84.4167C317.681 86.0367 317.886 87.6549 317.886 89.2741C317.886 91.0967 317.9 92.8228 320.3 93.2477C318.225 93.2477 316.147 93.2477 314.068 93.2477C315.85 92.4951 315.908 91.0088 315.899 89.4322C315.873 83.9754 315.885 78.519 315.899 73.0622C315.902 72.435 316.026 71.8084 316.095 71.1815C316.253 71.1203 316.414 71.0594 316.572 70.9984C321.959 76.8015 327.348 82.6046 332.967 88.6561C333.042 87.9637 333.137 87.5319 333.128 87.1022C333.042 82.7547 332.907 78.408 332.855 74.0602C332.838 72.5857 331.775 72.3261 330.748 71.744C332.623 71.744 334.497 71.744 336.374 71.744C334.523 72.5716 334.867 74.2514 334.865 75.7846C334.856 81.0976 334.867 86.4106 334.853 91.7237C334.853 92.3141 334.741 92.9044 334.477 93.594C331.148 90.7515 328.035 87.7854 325.164 84.4236Z" fill="currentColor"/>
<path d="M142.571 71.5569C143.65 71.5569 144.592 71.5569 145.533 71.5569C145.619 71.6567 145.705 71.7564 145.79 71.8565C143.849 72.5385 143.995 74.0525 143.998 75.5302C144.009 80.9387 144.008 86.3474 143.993 91.7562C143.991 92.3443 143.871 92.9318 143.756 93.968C137.619 88.4262 132.48 82.5104 126.891 76.4405C126.826 77.3649 126.752 77.8613 126.763 78.356C126.851 82.3684 126.967 86.3802 127.048 90.3926C127.081 91.9939 127.882 92.853 129.443 93.2348C127.368 93.2348 125.292 93.2348 123.217 93.2348C125.169 92.4578 125.04 90.7984 125.036 89.1681C125.023 83.7596 125.026 78.3509 125.04 72.9421C125.042 72.352 125.157 71.7622 125.219 71.1723C125.367 71.0996 125.515 71.0269 125.663 70.9545C131.07 76.7855 136.477 82.6167 142.093 88.6728C142.177 87.9947 142.276 87.5961 142.268 87.1997C142.181 82.8044 142.05 78.4098 141.993 74.0143C141.974 72.5383 140.849 72.3302 139.824 71.9438C139.834 71.8151 139.845 71.686 139.855 71.5569C140.715 71.5569 141.575 71.5569 142.571 71.5569Z" fill="currentColor"/>
<path d="M179.378 91.9718C180.348 92.3455 181.218 92.6769 182.479 93.1569C178.781 93.7962 175.749 93.4544 173.657 91.3334C171.354 92.2193 169.439 93.1727 167.413 93.6884C163.687 94.6361 160.4 92.3601 159.455 90.0977C158.184 87.0523 159.097 83.3613 161.884 81.2207C162.65 80.632 162.923 80.2296 162.467 79.25C161.578 77.3394 161.399 75.3509 162.852 73.5763C164.533 71.5214 166.752 70.7568 169.365 71.0672C169.412 71.0727 169.457 71.0934 169.504 71.1026C172.33 71.6677 173.064 73.4093 171.512 76.1526C171.33 75.7505 171.147 75.4337 171.039 75.0928C170.348 72.9034 168.349 71.8973 166.188 72.6677C164.473 73.2791 163.488 75.6395 164.422 77.4734C165.193 78.9867 166.179 80.4383 167.301 81.7137C168.942 83.5789 170.775 85.2782 172.557 87.0169C173.703 88.1356 174.253 87.9681 174.711 86.4254C174.833 86.0141 174.931 85.5938 175.013 85.1721C175.397 83.2107 175.192 82.7493 173.098 81.4185C174.619 81.4185 175.789 81.2782 176.884 81.5024C177.22 81.5714 177.666 82.7292 177.52 83.2302C177.069 84.7706 176.484 86.3049 175.704 87.7042C175.136 88.7243 175.17 89.332 176.143 89.9301C177.199 90.5789 178.234 91.2616 179.378 91.9718ZM164.007 91.1181C166.774 92.6168 169.831 92.2213 171.826 90.1457C169.328 87.5197 166.822 84.9037 164.341 82.2656C163.713 81.5981 163.233 81.728 162.691 82.3578C160.574 84.8218 161.13 89.0787 164.007 91.1181Z" fill="currentColor"/>
<path d="M34.7052 73.2003C39.1751 70.1448 45.4304 70.1709 49.408 73.5147C52.9208 76.4676 53.6994 80.4515 52.8098 84.8476C51.6184 90.7358 46.2033 94.432 39.7724 93.8045C31.2855 92.9761 27.314 82.4362 32.4557 75.515C33.0717 74.686 33.8983 74.0134 34.7052 73.2003ZM49.1125 77.8162C48.2165 76.5969 47.4681 75.2247 46.3959 74.187C43.3396 71.229 37.4068 71.9985 34.9552 75.4437C32.424 79.0008 32.4781 87.0505 37.1392 90.7453C40.8923 93.7205 46.3013 92.8625 48.6167 88.6832C50.512 85.2621 50.4359 81.6544 49.1125 77.8162Z" fill="currentColor"/>
<path d="M239.302 72.8076C243.261 75.5334 244.846 80.1221 243.646 85.1736C242.567 89.7125 238.932 93.056 234.441 93.7036C230.656 94.2495 227.209 93.6556 224.388 90.8574C220.382 86.8847 219.995 80.0385 223.308 75.4486C226.5 71.0275 232.962 69.8654 238.06 72.1686C238.452 72.3457 238.828 72.5576 239.302 72.8076ZM229.997 91.8286C234.287 93.6562 238.049 91.4234 239.484 88.8608C241.71 84.8847 241.663 77.5653 237.049 73.9177C233.724 71.2902 228.089 72.1063 225.714 75.6064C224.193 77.8467 224.067 80.3518 224.212 82.8991C224.438 86.8542 226.117 89.9358 229.997 91.8286Z" fill="currentColor"/>
<path d="M249.757 74.029C249.156 73.156 248.563 72.409 247.881 71.5504C247.716 71.8019 247.764 71.6631 247.814 71.6628C250.919 71.6375 254.045 71.3966 257.126 71.6674C260.782 71.989 262.759 75.229 261.63 78.772C261.238 80.0031 260.473 81.1851 259.632 82.1828C258.855 83.1049 258.588 83.6617 259.517 84.6849C261.053 86.3754 262.374 88.2592 263.819 90.0336C265.125 91.6372 266.801 92.6645 269.112 92.9428C266.139 94.2705 262.746 93.2785 260.805 90.6878C259.432 88.8551 258.083 87.0043 256.725 85.1598C256.095 84.3035 253.679 83.7973 252.831 84.3871C252.627 84.5291 252.427 84.8473 252.427 85.0842C252.431 87.0882 252.471 89.0925 252.522 91.0963C252.558 92.5435 253.816 92.6456 254.764 93.2417C252.588 93.2417 250.412 93.2417 247.815 93.2417C249.915 92.1975 249.78 90.5424 249.779 88.9399C249.776 84.0115 249.77 79.083 249.757 74.029ZM253.842 82.9893C257.467 83.2279 258.665 82.4004 259.178 79.0261C259.598 76.2612 258.034 72.3776 253.867 72.6915C252.757 72.7752 252.35 73.2112 252.365 74.2765C252.396 76.6145 252.4 78.9534 252.363 81.2909C252.348 82.2127 252.742 82.7209 253.842 82.9893Z" fill="currentColor"/>
<path d="M66.4611 71.6475C72.3093 72.8358 71.8379 79.0968 69.0411 81.9114C67.8632 83.0968 67.8201 83.8665 68.9417 85.0749C70.3648 86.6081 71.568 88.344 72.8954 89.9686C74.2239 91.5946 75.9158 92.6607 78.3691 92.9758C74.8779 94.1997 71.8934 93.298 69.9253 90.6604C68.5559 88.8249 67.2058 86.9746 65.8465 85.1313C65.2294 84.2939 62.7364 83.8044 61.9411 84.4023C61.7422 84.5518 61.5637 84.8749 61.5628 85.1186C61.5573 87.0769 61.595 89.0355 61.6226 90.9939C61.6436 92.4897 62.9212 92.6415 63.8977 93.2586C61.7197 93.2586 59.5421 93.2586 56.8724 93.2586C58.8962 92.2971 58.9207 90.824 58.9198 89.3362C58.9175 84.5509 58.8847 79.7656 58.9379 74.9812C58.9557 73.396 58.5815 72.2356 56.718 72.0229C56.7539 71.8881 56.7896 71.753 56.8255 71.6182C59.9971 71.6182 63.1687 71.6182 66.4611 71.6475ZM64.3587 72.7374C63.8822 72.7308 63.4053 72.7326 62.9293 72.7159C61.9905 72.6831 61.5102 73.0921 61.5162 74.0683C61.5315 76.5475 61.5024 79.0269 61.5461 81.5052C61.5527 81.8818 61.7499 82.3848 62.0333 82.6047C63.4817 83.7274 66.7206 83.0065 67.5893 81.3681C69.2213 78.2899 68.2492 73.7165 64.3587 72.7374Z" fill="currentColor"/>
<path d="M84.7521 92.9255C79.982 91.0531 77.7687 87.3796 77.7362 82.6231C77.7003 77.3988 80.0208 72.2235 87.4687 71.2131C90.5385 70.7969 93.4557 71.283 96.4049 71.8619C96.7348 71.9266 97.2755 72.2028 97.2864 72.4043C97.3635 73.828 97.3273 75.2577 97.3273 76.7745C96.9521 76.6377 96.7992 76.6216 96.7877 76.5719C96.1752 73.9786 94.2272 73.095 91.8797 72.6716C89.7779 72.2922 87.7107 72.2261 85.6701 72.9941C81.949 74.3945 80.6181 77.4523 80.5402 81.0332C80.4523 85.0726 82.0266 88.488 85.5132 90.8113C87.7532 92.304 90.2689 92.4503 92.8303 92.1597C93.9435 92.0335 94.6414 91.4147 94.5704 90.1315C94.5046 88.9381 94.567 87.738 94.5601 86.5409C94.5515 84.9872 94.9602 83.2267 92.3399 82.9266C92.4707 82.8231 92.6015 82.7193 92.732 82.6159C94.8162 82.6159 96.9001 82.6159 98.9841 82.6159C97.4572 83.3 97.3893 84.5429 97.4261 85.8901C97.4721 87.5647 97.3876 89.2434 97.448 90.9171C97.492 92.1295 96.9378 92.7671 95.8366 93.1183C92.1551 94.2922 88.5 94.0994 84.7521 92.9255Z" fill="currentColor"/>
<path d="M272.444 73.5095C276.374 70.7892 280.639 70.5822 285.037 71.3997C288.802 72.0999 288.248 71.2606 288.285 75.557C288.288 75.939 288.167 76.3218 288.095 76.7452C287.811 76.6392 287.658 76.6219 287.647 76.5725C286.963 73.5788 284.543 72.9749 282.042 72.5098C278.308 71.8151 274.451 73.1689 272.824 76.0071C270.603 79.8803 270.941 83.8375 273.2 87.5716C275.063 90.649 277.911 92.2224 281.553 92.2511C281.841 92.2534 282.128 92.2532 282.416 92.25C285.011 92.2218 285.416 91.82 285.422 89.2598C285.422 87.9669 285.322 86.6648 285.445 85.3836C285.586 83.8999 284.75 83.2526 283.588 82.6219C285.669 82.6219 287.753 82.6219 289.834 82.6219C288.271 83.3316 288.245 84.628 288.285 86.0126C288.334 87.7346 288.377 89.4667 288.239 91.1796C288.19 91.772 287.725 92.6254 287.224 92.841C282.881 94.7168 275.73 94.2359 271.955 90.6915C269.833 88.6995 268.88 86.1882 268.727 83.2724C268.526 79.4733 269.473 76.1781 272.444 73.5095Z" fill="currentColor"/>
<path d="M114.784 80.6521C115.987 83.7352 117.143 86.7171 118.31 89.695C118.944 91.3136 119.866 92.655 121.705 93.2423C119.894 93.2423 118.083 93.2423 116.515 93.2423C115.601 90.7433 114.74 88.3021 113.793 85.8942C113.656 85.5461 113.122 85.3437 112.752 85.1052C112.647 85.0379 112.47 85.0689 112.328 85.0767C110.627 85.1707 108.927 85.2687 107.226 85.3656C106.524 87.4369 105.746 89.4883 105.18 91.5961C105.063 92.0301 105.736 92.676 106.063 93.2572C104.271 93.2572 102.379 93.2572 100.487 93.2572C102.946 92.6243 103.262 90.4343 103.944 88.6211C105.929 83.3498 107.816 78.0416 109.756 72.7536C109.96 72.1991 110.267 71.6823 110.526 71.148C110.702 71.1252 110.878 71.1025 111.054 71.0798C112.283 74.2362 113.512 77.3926 114.784 80.6521ZM108.791 80.1782C108.531 80.9925 108.197 81.7936 108.053 82.6277C108.005 82.9068 108.424 83.534 108.661 83.5507C109.969 83.6427 111.287 83.5947 112.951 83.5947C112.05 80.9838 111.25 78.6677 110.45 76.3515C110.325 76.3538 110.199 76.3561 110.074 76.3584C109.675 77.5613 109.275 78.7642 108.791 80.1782Z" fill="currentColor"/>
<path d="M301.545 71.2316C302.447 72.9717 303.341 74.6906 304.057 76.4802C305.669 80.5156 307.196 84.5857 308.757 88.6418C309.498 90.5725 310.202 92.5383 312.559 93.2494C310.746 93.2494 308.932 93.2494 307.391 93.2494C306.466 90.7251 305.615 88.2764 304.638 85.8783C304.482 85.4952 303.781 85.1488 303.31 85.1143C301.927 85.0131 300.524 84.9838 299.153 85.127C298.633 85.1813 297.929 85.6808 297.725 86.1563C297.087 87.6441 296.607 89.2052 296.138 90.7602C295.713 92.1695 295.776 92.2307 297.305 93.2296C295.161 93.2296 293.272 93.2296 290.872 93.2296C294.724 91.9784 294.669 88.6104 295.727 86.0218C297.529 81.6035 299.024 77.0585 300.671 72.5762C300.846 72.1002 301.188 71.6854 301.545 71.2316ZM299.446 80.8329C299.271 81.4733 299.027 82.1057 298.949 82.7579C298.918 83.0097 299.254 83.536 299.444 83.5458C300.794 83.6147 302.154 83.5825 303.838 83.5825C302.919 80.9482 302.117 78.6556 301.318 76.3632C301.197 76.3598 301.079 76.3563 300.961 76.3529C300.475 77.7728 299.99 79.1931 299.446 80.8329Z" fill="currentColor"/>
</svg>
