<svg width="407" height="164" viewBox="0 0 407 164" fill="none" xmlns="http://www.w3.org/2000/svg">
<path d="M292.721 102.509C290.721 100.365 290.806 97.9156 291.643 95.4717C292.729 92.2992 295.138 90.2382 298.001 88.7005C303.364 85.8202 309.732 85.7608 314.935 90.4413C322.356 97.1174 329.019 104.468 335.223 112.26C335.528 112.644 335.843 113.021 336.31 113.593C336.663 111.408 336.965 109.471 337.29 107.537C340.164 90.3974 344.847 73.7575 351.154 57.5727C356.643 43.4886 363.44 30.0811 372.414 17.8794C375.844 13.2158 379.628 8.79928 383.434 4.42992C386.984 0.354371 394.514 -1.14992 399.527 0.934839C404.088 2.83164 405.497 6.79023 403.14 11.2766C402.575 12.3515 401.886 13.4 401.077 14.3016C392.29 24.0928 385.449 35.1427 379.888 47.0146C371.579 64.7514 365.805 83.3035 362.295 102.557C360.523 112.277 359.432 122.088 359.307 131.977C359.25 136.582 359.36 141.198 359.642 145.794C359.83 148.871 358.835 151.305 356.632 153.308C352.352 157.202 347.359 158.861 341.598 157.872C339.42 157.499 337.664 156.392 336.313 154.6C329.48 145.538 322.675 136.455 315.762 127.454C308.859 118.465 301.404 109.968 292.721 102.509Z" fill="currentColor" fill-opacity="0.6"/>
<path d="M386.984 59.0979C386.8 56.9524 386.589 54.9084 386.481 52.859C386.447 52.2076 386.542 51.4673 386.83 50.8945C388.787 47.0024 390.81 43.1429 392.819 39.2773C392.978 38.9717 393.201 38.6992 393.457 38.3163C396.251 40.7083 398.249 43.5208 399.121 46.9428C399.739 49.3662 400 51.901 400.214 54.4036C401.33 67.4319 402.385 80.4655 403.453 93.498C404.376 104.771 405.325 116.042 406.194 127.319C406.901 136.489 399.455 145.357 390.126 146.322C382.997 147.06 375.841 147.53 368.696 148.115C368.382 148.141 368.064 148.118 367.63 148.118C367.477 145.12 367.314 142.183 367.183 139.245C367.131 138.094 367.197 136.936 367.125 135.787C367.071 134.921 367.374 134.578 368.253 134.514C371.99 134.244 375.722 133.918 379.457 133.614C382.293 133.384 385.132 133.181 387.965 132.922C391.001 132.644 392.849 130.3 392.592 127.266C391.81 118.005 391.072 108.741 390.309 99.4784C389.552 90.2879 388.783 81.0984 388.025 71.908C387.676 67.6717 387.339 63.4343 386.984 59.0979Z" fill="currentColor"/>
<path d="M100.928 60.6818C101.07 63.178 101.206 65.5718 101.352 68.1162C101.919 67.8949 102.315 67.7497 102.704 67.587C107.114 65.7423 111.648 65.4743 116.255 66.6304C121.425 67.9277 125.22 71.0341 127.504 75.819C130.4 81.8839 130.826 88.2451 128.977 94.6699C127.374 100.242 123.746 104.209 118.307 106.219C110.895 108.958 103.439 109.041 96.1135 105.761C95.1019 105.308 94.1253 104.73 93.2283 104.078C91.4144 102.759 90.3949 100.967 90.2782 98.682C89.7919 89.1514 89.2908 79.6215 88.792 70.0915C88.5398 65.2725 88.3121 60.4519 88.0003 55.6367C87.9355 54.6367 88.2281 54.2243 89.1836 54.0031C91.6972 53.4213 94.2234 53.0758 96.7863 53.4952C99.218 53.8931 100.307 55.0239 100.676 57.4595C100.832 58.4883 100.845 59.5388 100.928 60.6818ZM108.787 76.0391C106.635 75.9294 104.667 76.5069 102.8 77.5568C102.058 77.974 101.74 78.4456 101.793 79.3481C102.124 84.9181 102.405 90.4913 102.661 96.0654C102.695 96.8041 102.974 97.2738 103.646 97.3932C105.263 97.6803 106.892 98.0822 108.519 98.0966C112.43 98.1311 115.451 95.8179 116.485 92.0442C117.491 88.3668 117.281 84.6702 115.97 81.1071C114.8 77.927 112.398 76.2421 108.787 76.0391Z" fill="currentColor"/>
<path d="M310.46 39.7217C324.238 38.5935 337.916 37.4729 351.595 36.3573C351.653 36.3526 351.716 36.4195 351.877 36.5078C351.745 36.8158 351.616 37.1364 351.472 37.4501C349.623 41.4754 347.759 45.4936 345.935 49.5301C345.633 50.1977 345.268 50.5036 344.502 50.5651C332.473 51.5311 320.446 52.5312 308.419 53.5237C307.45 53.6037 306.479 53.6709 305.511 53.7674C302.73 54.0444 300.808 56.2989 301.024 59.1246C301.376 63.7222 301.784 68.3155 302.167 72.9107C302.313 74.6696 302.489 76.4274 302.57 78.1894C302.583 78.4791 302.216 79.0081 301.957 79.0556C297.497 79.8729 293.527 81.7113 290.044 84.61C289.942 84.6941 289.805 84.7342 289.542 84.8663C289.32 82.2929 289.099 79.8311 288.897 77.3678C288.431 71.695 288.029 66.0164 287.503 60.3493C286.548 50.0729 294.223 40.9571 304.542 40.1909C306.482 40.0469 308.421 39.8837 310.46 39.7217Z" fill="currentColor"/>
<path d="M254.62 82.8445C254.781 85.8597 254.925 88.7735 255.095 91.6857C255.208 93.6221 254.533 95.1961 253.071 96.4685C250.291 98.889 246.97 100.111 243.426 100.793C238.179 101.803 232.919 102.095 227.678 100.737C226.845 100.521 226.027 100.223 225.229 99.896C220.709 98.0466 218.346 94.634 217.971 89.7985C217.495 83.6431 220.009 79.5573 225.914 77.6544C228.975 76.6678 232.228 76.2637 235.404 75.6508C237.207 75.303 239.026 75.0306 240.846 74.7934C241.649 74.6889 241.859 74.3123 241.802 73.5692C241.656 71.6412 240.551 70.2735 238.491 69.6212C236.277 68.9198 234.004 69.023 231.741 69.2533C228.666 69.5662 225.744 70.4892 222.947 71.7619C221.985 72.1999 221.427 71.9573 220.821 71.2441C218.064 67.9985 218.998 63.649 222.881 61.925C225.808 60.6248 228.935 60.0795 232.093 59.7287C236.206 59.2721 240.297 59.3254 244.305 60.5006C250.195 62.2277 253.724 66.6913 254.071 72.8172C254.258 76.1252 254.433 79.434 254.62 82.8445ZM239.549 83.513C238.659 83.6349 237.752 83.6841 236.883 83.8941C235.219 84.2967 233.511 84.6342 231.943 85.2911C230.413 85.9326 229.937 87.2173 230.216 88.8632C230.508 90.5917 231.609 91.6201 233.248 91.9828C236.256 92.6482 239.188 92.2176 241.99 91.006C242.353 90.8486 242.715 90.2111 242.722 89.7901C242.746 88.3562 242.623 86.9188 242.532 85.4843C242.386 83.1851 242.378 83.1856 240.059 83.4422C239.952 83.454 239.845 83.4684 239.549 83.513Z" fill="currentColor"/>
<path d="M192.572 71.8609C192.415 71.9049 192.345 71.922 192.276 71.9414C188.538 72.9889 188.492 73.0507 188.688 76.8792C189.11 85.1197 189.53 93.3604 189.963 101.6C189.993 102.181 190.008 102.663 189.287 102.841C186.639 103.493 183.96 103.83 181.252 103.422C178.684 103.034 177.518 101.9 177.279 99.3204C176.957 95.8429 176.82 92.3476 176.631 88.8585C176.354 83.7496 176.183 78.6334 175.806 73.5321C175.596 70.6721 176.527 68.4887 178.758 66.747C182.093 64.1444 185.952 62.8173 190.04 62.1134C194.293 61.3811 198.573 61.2074 202.818 62.2182C209.944 63.9149 213.85 68.6423 214.218 75.936C214.628 84.0329 215.037 92.1298 215.481 100.225C215.524 101.013 215.351 101.406 214.54 101.585C211.988 102.15 209.42 102.506 206.82 102.122C204.18 101.732 203.029 100.617 202.79 97.9664C202.471 94.4162 202.343 90.8486 202.145 87.2877C201.949 83.7621 201.814 80.2325 201.568 76.7105C201.34 73.4398 199.5 71.6713 196.199 71.5479C195.024 71.504 193.839 71.7315 192.572 71.8609Z" fill="currentColor"/>
<path d="M141.554 65.4531C143.983 66.2258 144.887 67.5539 145.046 70.4903C145.39 76.8564 145.693 83.2251 146.087 89.5882C146.35 93.8469 148.36 95.8564 152.603 95.8743C154.436 95.882 156.275 95.3144 158.105 94.9734C159.019 94.8032 159.223 94.1966 159.174 93.2993C158.702 84.6674 158.264 76.0336 157.832 67.3995C157.699 64.724 157.709 64.6368 160.371 64.2418C162.104 63.9848 163.889 63.8688 165.636 63.9623C168.883 64.1362 170.345 65.6249 170.539 68.8444C170.878 74.4532 171.143 80.0665 171.428 85.6785C171.596 88.988 171.74 92.2987 171.899 95.6086C172.026 98.2393 170.855 100.18 168.713 101.597C165.555 103.686 162.027 104.77 158.326 105.346C153.876 106.039 149.429 106.147 145.019 105.06C138.486 103.449 134.179 98.5792 133.609 91.8664C133.171 86.7005 132.996 81.5121 132.716 76.3331C132.552 73.3118 132.41 70.2894 132.26 67.2673C132.233 66.7217 132.179 66.1991 132.92 66.0045C135.735 65.2651 138.569 64.896 141.554 65.4531Z" fill="currentColor"/>
<path d="M15.0454 81.9361C14.8985 79.0256 14.725 76.2203 14.6255 73.4124C14.5947 72.5424 14.2419 72.3106 13.4359 72.3561C9.83916 72.5589 6.23911 72.7055 2.6434 72.9242C1.87541 72.971 1.46769 72.7261 1.12343 72.05C0.176485 70.1904 -0.184066 68.2473 0.0884568 66.1854C0.381995 63.9646 1.78722 62.5786 4.0178 62.4466C9.3402 62.1318 14.6654 61.8645 19.9899 61.5849C26.2495 61.2563 32.512 60.9738 38.7673 60.5773C39.9914 60.4998 40.6154 60.8616 41.0666 61.9535C41.7596 63.6302 42.0292 65.351 41.839 67.1347C41.5832 69.5333 40.0299 70.9666 37.6151 71.0962C34.7012 71.2527 31.7879 71.4381 28.8717 71.5228C27.829 71.5531 27.5405 71.8853 27.5985 72.9287C28.1926 83.6118 28.7399 94.2975 29.2977 104.983C29.3859 106.673 29.4406 108.366 29.553 110.055C29.5973 110.72 29.3672 111.038 28.7092 111.174C26.0538 111.721 23.3961 112.156 20.6705 111.787C18.2291 111.457 16.9066 110.378 16.5493 107.926C16.2128 105.616 16.1483 103.265 16.0217 100.929C15.6805 94.6333 15.37 88.3365 15.0454 81.9361Z" fill="currentColor"/>
<path d="M63.8009 146.415C61.865 146.527 60.0316 146.671 58.1956 146.726C57.321 146.752 57.1001 147.116 57.1556 147.931C57.2903 149.908 57.381 151.889 57.4369 153.87C57.4599 154.686 57.8007 154.9 58.5773 154.858C63.6507 154.585 68.7278 154.377 73.7991 154.072C74.7378 154.015 75.2963 154.289 75.4734 155.146C75.7471 156.471 76.1077 157.82 76.0927 159.154C76.0706 161.127 74.8431 162.242 72.8489 162.353C67.1285 162.669 61.4062 162.95 55.6843 163.239C54.641 163.292 53.5944 163.377 52.5527 163.344C49.9101 163.259 47.9603 161.656 47.6901 159.028C47.344 155.663 47.246 152.272 47.0659 148.891C46.7248 142.486 46.4253 136.079 46.0617 129.676C45.8378 125.734 47.651 123.614 51.5826 123.403C58.3469 123.041 65.1131 122.712 71.8759 122.324C72.8405 122.268 73.4446 122.584 73.6243 123.484C73.8823 124.775 74.2439 126.099 74.1781 127.389C74.0726 129.455 72.8621 130.476 70.7983 130.59C66.6249 130.82 62.4506 131.034 58.2758 131.239C56.303 131.336 56.2967 131.319 56.3865 133.334C56.449 134.738 56.574 136.141 56.5846 137.545C56.5912 138.416 56.937 138.644 57.764 138.597C62.1167 138.351 66.4737 138.176 70.8249 137.907C71.7663 137.848 72.3241 138.187 72.5004 139.018C72.7733 140.306 73.1372 141.63 73.0748 142.919C72.9717 145.051 71.788 146.026 69.6254 146.142C67.7184 146.245 65.8101 146.322 63.8009 146.415Z" fill="currentColor"/>
<path d="M181.352 153.973C176.925 150.588 175.351 145.93 175.128 140.683C174.698 130.563 181.517 123.498 191.643 123.391C197.401 123.33 202.277 125.06 205.725 129.891C207.916 132.961 208.764 136.487 208.785 140.192C208.818 145.866 207.074 150.769 202.165 154.099C196.319 158.065 187.248 158.006 181.352 153.973ZM186.348 144.938C187.575 147.853 189.444 149.153 192.263 149.052C195.113 148.949 197.052 147.585 197.885 144.855C198.883 141.584 198.738 138.296 197.415 135.139C196.247 132.351 194.174 131.155 191.282 131.368C188.581 131.567 186.665 133.197 185.919 136.06C185.155 138.992 185.373 141.906 186.348 144.938Z" fill="currentColor"/>
<path d="M261.824 138.8C261.951 141.207 261.994 143.516 262.209 145.809C262.4 147.853 261.664 149.368 260.071 150.577C257.615 152.439 254.783 153.321 251.798 153.789C247.89 154.403 243.982 154.562 240.115 153.502C233.832 151.78 231.762 147.204 232.696 141.48C233.134 138.796 234.786 136.965 237.176 135.743C239.762 134.42 242.59 134.062 245.4 133.617C247.178 133.335 248.952 133.022 250.736 132.786C251.505 132.684 251.668 132.351 251.565 131.629C251.33 129.991 250.351 129.072 248.84 128.629C246.301 127.886 243.756 128.16 241.256 128.769C239.655 129.159 238.089 129.734 236.556 130.35C235.768 130.666 235.288 130.513 234.778 129.915C232.554 127.311 233.313 123.654 236.558 122.475C238.871 121.636 241.337 121.121 243.778 120.758C246.963 120.284 250.175 120.396 253.316 121.263C258.266 122.629 261.156 126.239 261.418 131.359C261.543 133.805 261.683 136.25 261.824 138.8ZM244.651 140.711C242.746 141.523 242.124 142.356 242.294 143.862C242.466 145.394 243.518 146.362 245.392 146.648C247.508 146.971 249.544 146.602 251.535 145.876C252.124 145.661 252.378 145.306 252.332 144.659C252.226 143.188 252.203 141.71 252.068 140.243C252.045 139.994 251.6 139.559 251.404 139.587C249.199 139.899 247.006 140.286 244.651 140.711Z" fill="currentColor"/>
<path d="M120.619 158.509C118.612 159.991 116.354 160.56 114.019 160.916C110.751 161.416 107.494 161.472 104.252 160.697C97.6055 159.108 93.2125 154.289 92.276 147.51C91.8384 144.342 91.7837 141.182 92.8009 138.098C94.7831 132.088 99.9827 128.225 106.651 127.777C111.197 127.472 115.437 128.271 118.927 131.436C121.928 134.158 123.318 137.619 123.217 141.66C123.168 143.616 121.992 144.914 119.704 145.467C117.571 145.983 115.407 146.375 113.255 146.814C109.974 147.484 106.691 148.144 103.41 148.816C103.102 148.879 102.806 148.997 102.409 149.119C103.076 150.995 104.302 152.219 106.082 152.872C109.347 154.071 112.612 153.747 115.826 152.678C117.048 152.271 118.232 151.707 119.363 151.085C120.004 150.734 120.389 150.851 120.877 151.277C123.207 153.312 123.134 156.304 120.619 158.509ZM107.232 135.264C103.597 135.567 101.08 139.008 101.507 142.201C105.53 141.332 109.541 140.466 113.535 139.603C113.207 136.622 110.718 134.909 107.232 135.264Z" fill="currentColor"/>
<path d="M270.938 49.2596C271.299 55.8979 271.659 62.4414 272.002 68.9856C272.487 78.227 272.955 87.4692 273.443 96.7103C273.53 98.3554 273.573 98.4721 271.99 98.6742C269.786 98.9557 267.552 99.2187 265.338 99.1627C262.411 99.0888 261.006 97.662 260.754 94.741C260.487 91.6574 260.36 88.5614 260.198 85.4695C259.665 75.3291 259.145 65.1882 258.62 55.0475C258.475 52.2426 258.359 49.4357 258.162 46.6343C258.102 45.7707 258.393 45.322 259.217 45.2423C261.606 45.0116 264.011 44.5291 266.382 44.6578C269.409 44.8222 270.486 46.1348 270.938 49.2596Z" fill="currentColor"/>
<path d="M42.514 99.4629C42.1839 93.1376 41.9242 86.9112 41.4991 80.6961C41.286 77.5803 42.4102 75.2171 44.851 73.4154C48.4254 70.7767 52.5367 69.4653 56.8783 68.9822C59.251 68.7181 61.7226 68.6199 64.0669 68.9822C68.343 69.6431 70.2416 74.4775 67.8302 78.1125C67.6627 78.365 67.1006 78.4808 66.7349 78.4575C62.7895 78.2061 58.9788 78.6399 55.3561 80.3658C54.4183 80.8126 54.1686 81.3732 54.225 82.3678C54.7204 91.105 55.1578 99.8454 55.6454 108.583C55.6881 109.348 55.4913 109.772 54.7237 109.839C52.2947 110.053 49.861 110.452 47.4358 110.409C44.6002 110.358 43.2551 108.977 42.9348 106.14C42.6889 103.961 42.6481 101.758 42.514 99.4629Z" fill="currentColor"/>
<path d="M302.79 150.199C297.072 146.653 294.124 141.554 293.629 134.944C293.134 128.337 292.548 121.737 292.006 115.134C291.939 114.316 291.896 113.496 291.82 112.344C292.518 112.998 293.034 113.417 293.474 113.905C297.715 118.611 301.956 123.319 306.157 128.062C306.526 128.479 306.738 129.128 306.81 129.696C307.014 131.302 307.102 132.923 307.246 134.537C307.492 137.293 309.556 139.314 312.299 139.043C314.2 138.855 315.213 139.546 316.234 141.013C318.516 144.292 320.982 147.445 323.37 150.651C323.6 150.959 323.807 151.284 324.15 151.784C321.451 152.009 318.956 152.288 316.453 152.407C314.052 152.522 311.595 152.772 309.25 152.406C307.06 152.064 304.984 150.991 302.79 150.199Z" fill="currentColor"/>
<path d="M155.485 118.071C157.006 117.969 158.444 117.76 159.868 117.829C162.057 117.935 163.171 118.968 163.476 121.128C163.716 122.829 163.761 124.558 163.904 126.422C165.712 126.342 167.459 126.267 169.206 126.185C169.889 126.153 170.571 126.093 171.255 126.063C173.041 125.987 173.14 125.964 173.606 127.649C173.916 128.769 174.036 129.986 173.987 131.15C173.922 132.685 172.854 133.69 171.24 133.846C169.269 134.037 167.288 134.142 165.309 134.203C164.504 134.229 164.239 134.499 164.286 135.292C164.522 139.248 164.703 143.206 164.946 147.161C165.045 148.779 165.922 149.687 167.54 150.039C169.335 150.43 171.062 150.095 172.73 149.465C173.422 149.204 173.771 149.398 174.154 149.941C175.975 152.523 175.126 156.173 172.173 157.291C167.978 158.879 163.676 158.936 159.583 156.902C156.318 155.28 155.232 152.205 155.033 148.824C154.531 140.337 154.133 131.845 153.692 123.355C153.634 122.24 153.648 121.114 153.486 120.014C153.315 118.852 153.776 118.335 154.873 118.227C155.05 118.209 155.221 118.137 155.485 118.071Z" fill="currentColor"/>
<path d="M124.906 137.92C126.84 131.022 131.59 127.473 138.327 126.284C140.859 125.837 143.432 125.737 145.933 126.461C146.985 126.765 148.044 127.242 148.934 127.875C151.258 129.528 151.518 132.521 149.692 134.714C149.229 135.271 148.807 135.154 148.273 134.931C145.992 133.98 143.624 133.618 141.19 134.122C136.518 135.09 134.069 139.094 134.712 144.275C135.564 151.135 141.848 152.661 147.018 150.842C147.661 150.616 148.321 150.368 148.882 149.995C149.722 149.434 150.308 149.689 150.961 150.307C153.084 152.316 153.084 155.435 150.709 157.149C149.462 158.049 147.935 158.714 146.435 159.079C143.072 159.898 139.643 159.83 136.259 159.07C129.398 157.529 124.973 152.292 124.541 144.982C124.404 142.672 124.758 140.333 124.906 137.92Z" fill="currentColor"/>
<path d="M82.3251 70.4569C82.71 71.6842 83.2812 72.8342 83.349 74.0131C83.9261 84.0443 84.411 94.0808 84.9256 104.116C84.9809 105.195 85.092 106.273 85.0825 107.351C85.0799 107.645 84.7853 108.127 84.5335 108.198C81.7652 108.975 78.9454 109.244 76.0885 108.795C74.055 108.476 72.8143 107.24 72.5875 105.23C72.2974 102.657 72.1672 100.065 72.0283 97.4776C71.5593 88.7384 71.1143 79.9979 70.6669 71.2575C70.5868 69.6933 70.6002 69.6865 72.0993 69.3204C74.6083 68.7077 77.1577 68.3985 79.692 68.9803C80.6136 69.1918 81.4195 69.9074 82.3251 70.4569Z" fill="currentColor"/>
<path d="M275.467 122.78C275.943 132.024 276.401 141.164 276.918 150.301C276.974 151.293 276.755 151.843 275.744 151.905C273.778 152.026 271.802 152.281 269.846 152.181C267.982 152.086 267.013 151.108 266.832 149.222C266.512 145.89 266.36 142.541 266.182 139.197C265.685 129.878 265.2 120.559 264.737 111.238C264.64 109.287 264.139 109.318 266.546 108.936C268.231 108.668 269.989 108.591 271.687 108.741C273.647 108.914 274.559 109.92 274.806 111.89C275.033 113.71 275.094 115.552 275.203 117.385C275.308 119.147 275.38 120.912 275.467 122.78Z" fill="currentColor"/>
<path d="M89.1867 161.471C87.1713 161.655 85.2381 161.993 83.3174 161.933C80.8936 161.857 79.8884 160.821 79.6862 158.364C79.3999 154.886 79.2609 151.395 79.0781 147.908C78.5993 138.776 78.1345 129.644 77.6547 120.512C77.5757 119.008 77.5391 118.891 79.0571 118.702C80.8991 118.472 82.7851 118.273 84.623 118.421C86.6147 118.581 87.4679 119.572 87.7474 121.557C87.9626 123.086 88.0275 124.638 88.1084 126.182C88.6943 137.364 89.2744 148.545 89.8246 159.728C89.8535 160.315 90.3011 161.151 89.1867 161.471Z" fill="currentColor"/>
<path d="M211.542 142.614C211.349 138.663 211.201 134.811 210.956 130.965C210.809 128.651 211.734 126.914 213.517 125.563C216.324 123.436 219.573 122.369 223.007 121.973C225.024 121.74 227.131 121.652 229.121 121.972C232.445 122.506 233.898 126.266 232.053 129.132C231.887 129.388 231.334 129.525 230.973 129.504C227.939 129.326 225.013 129.694 222.218 130.966C221.424 131.327 221.101 131.77 221.153 132.686C221.543 139.518 221.857 146.354 222.257 153.186C222.316 154.203 221.992 154.693 221.032 154.76C219.173 154.89 217.3 155.159 215.453 155.045C213.266 154.91 212.295 153.842 212.088 151.666C211.869 149.373 211.796 147.067 211.661 144.766C211.62 144.083 211.584 143.399 211.542 142.614Z" fill="currentColor"/>
<path d="M83.1406 56.3067C83.0517 57.6437 83.1592 58.9528 82.797 60.1157C81.9382 62.8731 79.3652 64.471 76.1614 64.5023C73.1785 64.5315 70.6979 62.8777 69.6862 60.1854C68.649 57.4249 69.3836 54.398 71.5506 52.5038C75.5373 49.0189 81.8179 51.0316 83.1406 56.3067Z" fill="currentColor"/>
</svg>
