<svg width="219" height="58" viewBox="0 0 219 58" fill="none" xmlns="http://www.w3.org/2000/svg">
<path d="M74.3213 1.20041H71.7309C68.1691 1.17113 65.2549 4.01111 65.2255 7.55376C65.2255 7.58304 65.2255 7.61232 65.2255 7.6416V39.9939C65.2255 41.0187 65.8142 41.6042 66.8445 41.6042H71.0539C73.9092 41.6042 75.9403 39.5548 75.9403 36.7148V2.75215C75.9108 1.72741 75.381 1.20041 74.3213 1.20041ZM168.252 1.14185C164.896 1.14185 161.835 2.34225 160.216 4.09894C158.008 1.90308 153.593 0 149.001 0C137.167 0.146391 127.66 9.80818 127.807 21.578C127.954 33.1721 137.344 42.5119 149.001 42.6583C153.151 42.6583 156.507 41.3407 159.186 39.2034C159.039 45.791 155.124 48.9531 147.294 50.1827C146.204 50.3291 145.586 51.2075 146.087 52.3493C147.706 55.9505 150.62 58 154.034 58C160.216 58 168.046 53.3741 169.518 43.5073C169.753 41.8092 169.9 38.9107 169.959 36.6855V2.72287C169.9 1.66885 169.312 1.14185 168.252 1.14185ZM148.971 32.3523C142.878 32.3523 137.933 27.4336 137.933 21.373C137.933 15.3125 142.878 10.3937 148.971 10.3937C155.065 10.3937 159.686 15.3125 159.686 21.373C159.686 27.4336 155.065 32.3523 148.971 32.3523ZM102.286 0.0292799C91.718 0.0292799 83.3582 5.53357 83.3582 16.0444V39.9647C83.3582 40.9894 83.9469 41.575 84.9772 41.575H89.1865C92.0418 41.575 94.0729 39.5548 94.0729 36.6855V17.2741C94.0729 12.736 96.6339 10.3352 102.227 10.3352C107.82 10.3352 110.351 12.7067 110.351 17.2741V39.9061C110.351 40.9308 110.94 41.5164 111.97 41.5164H116.179C119.005 41.5164 121.036 39.4669 121.036 36.627V15.9566C121.125 5.53357 112.853 0.0292799 102.286 0.0292799ZM197.57 0.0292799C185.737 0.0292799 176.112 9.57395 176.112 21.3438C176.112 33.1136 185.708 42.6875 197.541 42.6875C209.374 42.6875 219 33.1429 219 21.373C219 9.57395 209.404 0.0292799 197.57 0.0292799ZM197.57 32.3523C191.477 32.4109 186.502 27.5215 186.473 21.4609C186.414 15.4003 191.33 10.4523 197.423 10.423C203.517 10.3645 208.491 15.2539 208.521 21.3145C208.521 21.3438 208.521 21.373 208.521 21.4023C208.521 27.4336 203.605 32.3231 197.57 32.3523ZM60.2508 1.14185H56.1003C52.4208 1.14185 50.2131 2.63503 48.5646 6.2948L40.5874 23.891L35.9071 13.2337C35.4656 12.2383 35.4656 11.0964 35.9071 10.101L36.9079 7.78799C38.4975 4.09894 39.9693 3.01565 42.2064 2.5472C42.0004 1.40535 41.2939 1.08329 39.4983 1.08329H33.7288C30.1965 1.08329 27.6355 2.5472 26.1637 6.23624L19.1874 23.8617L13.0352 6.32408C11.7989 2.72287 9.20851 1.14185 5.52899 1.14185H1.4668C0.436531 1.14185 -0.328809 1.99092 0.142169 3.24988L14.1243 38.8228C15.0369 41.1651 15.5962 41.6335 18.1865 41.6335C20.7769 41.6335 22.7197 40.4917 24.1032 37.3004L29.6372 24.6229L35.8188 38.8228C36.8491 41.1065 37.2906 41.6335 39.881 41.6335C42.4419 41.6335 44.2081 40.5209 45.7093 37.3004L61.6049 3.24988C62.1347 2.02019 61.3399 1.14185 60.2508 1.14185Z" fill="currentColor"/>
</svg>
