<?xml version="1.0" encoding="UTF-8" standalone="no"?>
<!DOCTYPE svg PUBLIC "-//W3C//DTD SVG 1.1//EN" "http://www.w3.org/Graphics/SVG/1.1/DTD/svg11.dtd">
<svg width="100%" height="100%" viewBox="0 0 1497 318" version="1.1" xmlns="http://www.w3.org/2000/svg" xmlns:xlink="http://www.w3.org/1999/xlink" xml:space="preserve" xmlns:serif="http://www.serif.com/" style="fill-rule:evenodd;clip-rule:evenodd;stroke-linejoin:round;stroke-miterlimit:2;">
    <g transform="matrix(1,0,0,1,-2440.94,-2282.16)">
        <g transform="matrix(5.55556,0,0,5.55556,0,0)">
            <g transform="matrix(1,0,0,1,0,325.184)">
                <path d="M629.367,115.232L629.367,111.635C629.367,110.008 628.806,108.628 627.686,107.506C626.562,106.387 625.186,105.822 623.555,105.822C621.922,105.822 620.533,106.387 619.387,107.506C618.24,108.628 617.667,110.008 617.667,111.635L617.667,115.232C617.667,115.846 617.996,116.148 618.659,116.148L628.375,116.148C629.035,116.148 629.367,115.846 629.367,115.232M636.019,130.301C636.019,133.717 634.808,136.646 632.388,139.094C629.967,141.543 627.021,142.767 623.555,142.767C620.087,142.767 617.131,141.556 614.681,139.133C612.234,136.711 611.011,133.766 611.011,130.301L611.011,111.635C611.011,108.17 612.234,105.223 614.681,102.803C617.131,100.383 620.087,99.169 623.555,99.169C627.021,99.169 629.967,100.383 632.388,102.803C634.808,105.223 636.019,108.17 636.019,111.635L636.019,121.886C636.019,122.497 635.689,122.804 635.027,122.804L618.659,122.804C617.996,122.804 617.667,123.11 617.667,123.721L617.667,130.301C617.667,131.931 618.24,133.308 619.387,134.431C620.533,135.553 621.922,136.112 623.555,136.112C625.186,136.112 626.562,135.54 627.686,134.39C628.806,133.246 629.367,131.879 629.367,130.301L629.367,128.234C629.367,127.572 629.674,127.24 630.285,127.24L635.027,127.24C635.689,127.24 636.019,127.572 636.019,128.234L636.019,130.301Z" style="fill:rgb(29,28,51);fill-rule:nonzero;"/>
            </g>
            <g transform="matrix(1,0,0,1,0,311.112)">
                <path d="M708.702,155.386C708.702,155.997 708.396,156.304 707.785,156.304L703.043,156.304C702.429,156.304 702.124,155.997 702.124,155.386L702.124,114.158C702.124,113.547 702.429,113.241 703.043,113.241L707.785,113.241C708.396,113.241 708.702,113.547 708.702,114.158L708.702,155.386ZM708.702,105.441C708.702,106.103 708.396,106.437 707.785,106.437L703.043,106.437C702.429,106.437 702.124,106.103 702.124,105.441L702.124,100.697C702.124,100.037 702.429,99.704 703.043,99.704L707.785,99.704C708.396,99.704 708.702,100.037 708.702,100.697L708.702,105.441Z" style="fill:rgb(29,28,51);fill-rule:nonzero;"/>
            </g>
            <g transform="matrix(1,0,0,1,0,311.078)">
                <path d="M596.229,140.827C596.229,142.551 595.609,144.031 594.37,145.27C593.129,146.509 591.649,147.129 589.927,147.129L572.91,147.129C571.185,147.129 569.704,146.509 568.464,145.27C567.223,144.031 566.605,142.551 566.605,140.827L566.605,140.574C566.605,138.809 567.223,137.307 568.464,136.067C569.704,134.83 571.185,134.208 572.91,134.208L595.472,134.208C595.978,134.208 596.229,134.459 596.229,134.965L596.229,140.827ZM611.656,99.712C611.63,99.712 611.603,99.711 611.578,99.711L611.578,99.715C607.357,99.751 603.757,101.271 600.766,104.281C597.743,107.326 596.229,110.973 596.229,115.216L596.229,125.005L572.91,125.005C568.623,125.005 564.976,126.521 561.974,129.543C558.968,132.57 557.444,136.223 557.401,140.51L557.401,140.765C557.36,145.049 558.863,148.715 561.908,151.76C564.957,154.808 568.623,156.331 572.91,156.331L589.927,156.331C594.212,156.331 597.867,154.818 600.894,151.792C603.919,148.769 605.432,145.114 605.432,140.827L605.432,115.216C605.432,113.493 606.042,112.013 607.261,110.77C608.459,109.552 609.923,108.932 611.656,108.914L611.656,99.712Z" style="fill:rgb(29,28,51);fill-rule:nonzero;"/>
            </g>
            <g transform="matrix(1,0,0,1,0,311.079)">
                <path d="M680.968,110.268C682.802,108.596 684.942,107.761 687.445,107.761L696.625,107.761L696.625,99.71L678.245,99.71C675.759,99.71 673.618,100.491 671.858,102.072C670.081,103.653 669.189,105.546 669.189,107.761L669.189,116.392C669.189,118.791 668.285,120.829 666.468,122.498C664.656,124.19 662.495,125.023 660.011,125.023C657.504,125.023 655.364,124.046 653.532,122.064C651.747,120.129 650.84,117.898 650.814,115.349L650.814,115.215C650.814,110.973 649.301,107.325 646.275,104.28C643.289,101.27 639.683,99.75 635.467,99.711L635.467,99.71C635.443,99.71 635.413,99.711 635.389,99.711L635.389,108.914C637.117,108.931 638.583,109.551 639.784,110.769C641.003,112.012 641.611,113.492 641.611,115.215L641.611,156.331L650.812,156.331L650.812,142.709C650.812,140.219 651.718,138.093 653.532,136.315C655.364,134.531 657.504,133.658 660.011,133.658L678.245,133.658C680.821,133.658 683.002,134.531 684.778,136.315C686.557,138.093 687.445,140.219 687.445,142.709L687.445,156.331L696.625,156.331L696.625,133.658C696.625,131.06 695.737,128.969 693.979,127.391C692.2,125.805 690.04,125.023 687.517,125.023C684.979,125.023 682.802,124.19 680.968,122.498C679.152,120.829 678.245,118.791 678.245,116.392C678.245,113.995 679.152,111.958 680.968,110.268" style="fill:rgb(29,28,51);fill-rule:nonzero;"/>
            </g>
            <g transform="matrix(1,0,0,1,0,350.664)">
                <path d="M667.87,102.069C666.184,102.069 664.734,102.675 663.526,103.882C662.317,105.092 661.711,106.54 661.711,108.229C661.711,109.914 662.317,111.363 663.526,112.57C664.734,113.784 666.184,114.387 667.87,114.387C669.559,114.387 671.006,113.784 672.215,112.57C673.426,111.363 674.03,109.914 674.03,108.229C674.03,106.54 673.426,105.092 672.215,103.882C671.006,102.675 669.559,102.069 667.87,102.069" style="fill:rgb(29,28,51);fill-rule:nonzero;"/>
            </g>
            <g transform="matrix(1,0,0,1,0,326.662)">
                <path d="M467.208,114.026L474.425,114.026C474.913,114.026 475.158,113.801 475.158,113.35L475.158,109.797C475.158,109.346 474.913,109.121 474.425,109.121L467.208,109.121C466.756,109.121 466.53,108.895 466.53,108.444L466.53,99.873C466.53,99.422 466.306,99.195 465.854,99.195L462.302,99.195C461.851,99.195 461.625,99.422 461.625,99.873L461.625,108.444C461.625,108.895 461.399,109.121 460.948,109.121L448.649,109.121C448.646,109.121 448.645,109.122 448.642,109.122C448.633,109.122 448.626,109.121 448.618,109.121C446.137,109.121 444.022,109.958 442.274,111.63C440.525,113.303 439.652,115.38 439.652,117.861C439.652,121.508 441.268,124.12 444.502,125.699L450.479,128.631C451.907,129.346 452.622,130.624 452.622,132.466C452.622,133.593 452.235,134.524 451.466,135.257C450.694,135.99 449.745,136.357 448.618,136.357C447.414,136.357 446.391,135.943 445.545,135.116C444.698,134.29 444.275,133.275 444.275,132.071L444.275,130.717C444.275,130.23 444.05,129.985 443.6,129.985L440.104,129.985C439.614,129.985 439.37,130.23 439.37,130.717L439.37,132.071C439.37,134.629 440.272,136.799 442.077,138.584C443.881,140.37 446.061,141.263 448.618,141.263C450.046,141.263 451.399,140.943 452.678,140.304C455.91,138.65 457.527,136.037 457.527,132.466C457.527,128.557 455.91,125.812 452.678,124.233L446.7,121.3C445.271,120.587 444.558,119.44 444.558,117.861C444.558,116.282 445.271,115.154 446.7,114.478C447.339,114.177 447.978,114.026 448.618,114.026L460.948,114.026C461.399,114.026 461.625,114.252 461.625,114.703L461.625,130.887C461.625,133.631 462.602,135.981 464.557,137.936C466.512,139.891 468.861,140.868 471.605,140.868L474.425,140.868C474.913,140.868 475.158,140.643 475.158,140.191L475.158,136.639C475.158,136.187 474.913,135.962 474.425,135.962L471.605,135.962C470.214,135.962 469.02,135.464 468.024,134.468C467.028,133.472 466.53,132.278 466.53,130.887L466.53,114.703C466.53,114.252 466.756,114.026 467.208,114.026" style="fill:rgb(248,187,21);fill-rule:nonzero;"/>
            </g>
            <g transform="matrix(1,0,0,1,0,336.588)">
                <path d="M497.771,122.145C497.771,124.665 496.876,126.826 495.092,128.63C493.305,130.434 491.134,131.337 488.58,131.337C486.022,131.337 483.842,130.444 482.038,128.658C480.233,126.874 479.331,124.703 479.331,122.145L479.331,99.872C479.331,99.42 479.575,99.195 480.064,99.195L483.56,99.195C484.011,99.195 484.237,99.42 484.237,99.872L484.237,122.145C484.237,123.349 484.66,124.364 485.505,125.19C486.351,126.018 487.375,126.431 488.58,126.431C489.782,126.431 490.796,126.008 491.624,125.162C492.45,124.316 492.865,123.311 492.865,122.145L492.865,99.872C492.865,99.42 493.09,99.195 493.542,99.195L497.037,99.195C497.525,99.195 497.771,99.42 497.771,99.872L497.771,122.145Z" style="fill:rgb(248,187,21);fill-rule:nonzero;"/>
            </g>
            <g transform="matrix(1,0,0,1,0,326.606)">
                <path d="M515.476,132.466L515.476,114.815C515.476,114.327 515.249,114.082 514.799,114.082L511.923,114.082C510.532,114.082 509.338,114.581 508.342,115.577C507.346,116.574 506.848,117.767 506.848,119.157L506.848,131.394C506.848,133.8 507.976,135.398 510.231,136.188C511.472,136.638 512.656,136.469 513.785,135.68C514.912,134.89 515.476,133.819 515.476,132.466M520.382,132.466C520.382,135.511 519.122,137.917 516.603,139.683C515.062,140.774 513.351,141.319 511.472,141.319C510.494,141.319 509.536,141.15 508.596,140.811C506.603,140.097 504.996,138.875 503.775,137.146C502.553,135.417 501.942,133.499 501.942,131.394L501.942,119.157C501.942,116.414 502.919,114.065 504.874,112.11C506.829,110.154 509.178,109.177 511.923,109.177L514.799,109.177C515.249,109.177 515.476,108.951 515.476,108.5L515.476,99.929C515.476,99.441 515.702,99.195 516.153,99.195L519.705,99.195C520.157,99.195 520.382,99.441 520.382,99.929L520.382,132.466Z" style="fill:rgb(248,187,21);fill-rule:nonzero;"/>
            </g>
            <g transform="matrix(1,0,0,1,0,326.211)">
                <path d="M529.346,140.642C529.346,141.094 529.121,141.319 528.67,141.319L525.174,141.319C524.722,141.319 524.497,141.094 524.497,140.642L524.497,110.248C524.497,109.797 524.722,109.572 525.174,109.572L528.67,109.572C529.121,109.572 529.346,109.797 529.346,110.248L529.346,140.642ZM529.346,103.82C529.346,104.308 529.121,104.553 528.67,104.553L525.174,104.553C524.722,104.553 524.497,104.308 524.497,103.82L524.497,100.324C524.497,99.835 524.722,99.59 525.174,99.59L528.67,99.59C529.121,99.59 529.346,99.835 529.346,100.324L529.346,103.82Z" style="fill:rgb(248,187,21);fill-rule:nonzero;"/>
            </g>
            <g transform="matrix(1,0,0,1,0,336.588)">
                <path d="M546.995,122.145L546.995,108.386C546.995,107.184 546.582,106.168 545.756,105.341C544.928,104.515 543.913,104.1 542.71,104.1C541.507,104.1 540.483,104.515 539.637,105.341C538.791,106.168 538.367,107.184 538.367,108.386L538.367,122.145C538.367,123.349 538.791,124.364 539.637,125.19C540.483,126.018 541.507,126.431 542.71,126.431C543.913,126.431 544.928,126.008 545.756,125.162C546.582,124.316 546.995,123.311 546.995,122.145M551.901,122.145C551.901,124.665 551.009,126.826 549.223,128.63C547.436,130.434 545.266,131.337 542.71,131.337C540.153,131.337 537.974,130.444 536.169,128.658C534.364,126.874 533.462,124.703 533.462,122.145L533.462,108.386C533.462,105.83 534.364,103.659 536.169,101.874C537.974,100.087 540.153,99.195 542.71,99.195C545.266,99.195 547.436,100.087 549.223,101.874C551.009,103.659 551.901,105.83 551.901,108.386L551.901,122.145Z" style="fill:rgb(248,187,21);fill-rule:nonzero;"/>
            </g>
        </g>
    </g>
</svg>
