<?xml version="1.0" encoding="UTF-8" standalone="no"?>
<!DOCTYPE svg PUBLIC "-//W3C//DTD SVG 1.1//EN" "http://www.w3.org/Graphics/SVG/1.1/DTD/svg11.dtd">
<svg width="100%" height="100%" viewBox="0 0 804 804" version="1.1" xmlns="http://www.w3.org/2000/svg" xmlns:xlink="http://www.w3.org/1999/xlink" xml:space="preserve" xmlns:serif="http://www.serif.com/" style="fill-rule:evenodd;clip-rule:evenodd;stroke-linejoin:round;stroke-miterlimit:2;">
    <g transform="matrix(1,0,0,1,-1812.28,1277.31)">
        <g>
            <g transform="matrix(1.70038,0,0,1.70038,-1500.63,620.901)">
                <rect x="1948.33" y="-1116.35" width="472.335" height="472.335" style="fill:rgb(248,182,22);"/>
            </g>
            <g transform="matrix(1,0,0,1,-467.216,-524.874)">
                <path d="M2775.54,-591.471C2786.37,-591.471 2795.08,-587.771 2801.65,-580.446C2808.26,-573.033 2811.52,-564.033 2811.52,-553.521C2811.52,-542.946 2814.99,-533.875 2822.04,-526.233C2828.99,-518.666 2837.49,-514.887 2847.48,-514.887C2857.47,-514.887 2865.96,-518.666 2873,-526.233C2879.97,-533.875 2883.44,-542.791 2883.44,-553.221L2883.44,-591.471L2916.99,-591.471L2916.99,-514.887C2916.99,-504.529 2913.74,-495.608 2907.15,-488.275C2900.56,-480.871 2892.67,-477.154 2883.44,-477.154L2847.48,-477.154C2837.49,-477.154 2828.99,-473.387 2822.04,-465.816C2814.99,-458.266 2811.52,-449.262 2811.52,-438.912C2811.52,-428.466 2815.59,-419.55 2823.85,-411.916C2831.91,-404.479 2841.21,-400.7 2851.83,-400.591L2852.39,-400.591C2870.06,-400.591 2885.26,-394.287 2897.95,-381.679C2910.49,-369.237 2916.82,-354.212 2916.99,-336.646L2916.99,-336.646L2916.99,-336.32C2916.99,-336.212 2916.99,-336.1 2916.99,-335.996L2916.97,-335.996C2916.82,-318.408 2910.49,-303.408 2897.95,-290.946C2885.26,-278.35 2870.06,-272.041 2852.39,-272.041L2811.6,-272.041L2811.6,-174.879C2811.6,-157.016 2805.28,-141.821 2792.69,-129.312C2780.08,-116.787 2764.86,-110.437 2746.99,-110.258L2745.93,-110.258C2728.08,-110.087 2712.81,-116.35 2700.12,-129.037C2687.42,-141.741 2681.07,-157.016 2681.07,-174.879L2681.07,-174.889L2681.07,-174.879C2681.07,-157.016 2674.72,-141.741 2662.02,-129.037C2649.33,-116.35 2634.06,-110.087 2616.21,-110.258L2615.14,-110.258C2597.28,-110.437 2582.06,-116.787 2569.45,-129.312C2556.86,-141.821 2550.54,-157.016 2550.54,-174.879L2550.54,-272.041L2509.75,-272.041C2492.07,-272.041 2476.88,-278.35 2464.19,-290.946C2451.65,-303.408 2445.32,-318.408 2445.16,-335.996L2445.15,-335.996C2445.15,-336.1 2445.15,-336.212 2445.15,-336.321L2445.15,-336.646L2445.15,-336.646C2445.32,-354.212 2451.65,-369.237 2464.19,-381.679C2476.88,-394.287 2492.08,-400.591 2509.75,-400.591L2510.31,-400.591C2520.93,-400.7 2530.23,-404.479 2538.29,-411.916C2546.55,-419.55 2550.62,-428.466 2550.62,-438.912C2550.62,-449.262 2547.15,-458.266 2540.1,-465.816C2533.14,-473.387 2524.65,-477.154 2514.66,-477.154L2478.69,-477.154C2469.47,-477.154 2461.58,-480.871 2454.99,-488.275C2448.4,-495.608 2445.15,-504.529 2445.15,-514.887L2445.15,-591.471L2478.69,-591.471L2478.69,-553.221C2478.69,-542.791 2482.17,-533.875 2489.14,-526.233C2496.18,-518.666 2504.67,-514.887 2514.66,-514.887C2524.65,-514.887 2533.14,-518.666 2540.1,-526.233C2547.15,-533.875 2550.62,-542.946 2550.62,-553.521C2550.62,-564.033 2553.88,-573.033 2560.49,-580.446C2567.06,-587.771 2575.77,-591.471 2586.6,-591.471L2775.54,-591.471ZM2745.67,-272.041C2738.49,-272.041 2732.32,-269.458 2727.16,-264.296C2722,-259.125 2719.41,-252.958 2719.41,-245.783L2719.41,-174.879C2719.41,-167.691 2722,-161.521 2727.16,-156.354C2732.32,-151.183 2738.49,-148.608 2745.67,-148.608L2746.73,-148.608C2754.08,-148.608 2760.34,-151.183 2765.51,-156.354C2770.66,-161.521 2773.25,-167.691 2773.25,-174.879L2773.25,-268.887C2773.25,-270.996 2772.21,-272.041 2770.1,-272.041L2745.67,-272.041ZM2616.47,-272.041C2623.65,-272.041 2629.82,-269.458 2634.98,-264.296C2640.14,-259.125 2642.72,-252.958 2642.72,-245.783L2642.72,-174.879C2642.72,-167.691 2640.14,-161.521 2634.98,-156.354C2629.82,-151.183 2623.65,-148.608 2616.47,-148.608L2615.41,-148.608C2608.06,-148.608 2601.8,-151.183 2596.63,-156.354C2591.48,-161.521 2588.89,-167.691 2588.89,-174.879L2588.89,-268.887C2588.89,-270.996 2589.93,-272.041 2592.04,-272.041L2616.47,-272.041ZM2509.75,-362.246C2502.57,-362.246 2496.41,-359.712 2491.23,-354.633C2486.15,-349.629 2483.57,-343.521 2483.5,-336.321L2483.49,-336.321C2483.57,-329.1 2486.15,-323 2491.23,-318.008C2496.41,-312.929 2502.57,-310.387 2509.75,-310.387L2616.47,-310.387C2634.33,-310.387 2649.56,-304.083 2662.15,-291.479C2674.76,-278.866 2681.07,-263.637 2681.07,-245.783L2681.07,-245.774L2681.07,-245.783C2681.07,-263.637 2687.38,-278.866 2699.99,-291.479C2712.58,-304.083 2727.81,-310.387 2745.67,-310.387L2852.39,-310.387C2859.56,-310.387 2865.73,-312.929 2870.91,-318.008C2875.98,-322.999 2878.57,-329.099 2878.64,-336.317L2878.64,-336.321C2878.57,-343.521 2875.99,-349.629 2870.91,-354.633C2865.73,-359.712 2859.57,-362.246 2852.39,-362.246L2509.75,-362.246ZM2737.83,-400.583C2748.2,-400.583 2757.06,-404.358 2764.47,-411.916C2771.9,-419.55 2775.54,-428.466 2775.54,-438.912L2775.54,-514.887C2775.54,-525.621 2771.9,-534.708 2764.47,-542.108C2757.06,-549.521 2748.2,-553.221 2737.83,-553.221L2624.31,-553.221C2613.93,-553.221 2605.08,-549.521 2597.67,-542.108C2590.24,-534.708 2586.6,-525.621 2586.6,-514.887L2586.6,-438.912C2586.6,-428.466 2590.24,-419.55 2597.67,-411.916C2605.08,-404.358 2613.93,-400.583 2624.31,-400.583L2737.83,-400.583ZM2619.91,-471.656C2619.91,-464.631 2622.44,-458.589 2627.47,-453.556C2632.51,-448.518 2638.55,-445.993 2645.58,-445.993C2652.6,-445.993 2658.64,-448.518 2663.67,-453.556C2668.73,-458.589 2671.24,-464.631 2671.24,-471.656C2671.24,-478.693 2668.73,-484.722 2663.67,-489.76C2658.64,-494.806 2652.6,-497.322 2645.58,-497.322C2638.55,-497.322 2632.51,-494.806 2627.47,-489.76C2622.44,-484.722 2619.91,-478.693 2619.91,-471.656ZM2742.22,-471.656C2742.22,-464.631 2739.7,-458.589 2734.67,-453.556C2729.63,-448.518 2723.59,-445.993 2716.55,-445.993C2709.53,-445.993 2703.5,-448.518 2698.47,-453.556C2693.41,-458.589 2690.9,-464.631 2690.9,-471.656C2690.9,-478.693 2693.41,-484.722 2698.47,-489.76C2703.5,-494.806 2709.53,-497.322 2716.55,-497.322C2723.59,-497.322 2729.63,-494.806 2734.67,-489.76C2739.7,-484.722 2742.22,-478.693 2742.22,-471.656Z" style="fill:rgb(29,28,51);fill-rule:nonzero;"/>
            </g>
            <g transform="matrix(1,0,0,1,-467.216,-524.874)">
                <path d="M2616.47,-272.041C2623.65,-272.041 2629.82,-269.458 2634.98,-264.296C2640.14,-259.125 2642.72,-252.958 2642.72,-245.783L2642.72,-174.879C2642.72,-167.691 2640.14,-161.521 2634.98,-156.354C2629.82,-151.183 2623.65,-148.608 2616.47,-148.608L2615.41,-148.608C2608.06,-148.608 2601.8,-151.183 2596.63,-156.354C2591.48,-161.521 2588.89,-167.691 2588.89,-174.879L2588.89,-268.887C2588.89,-270.996 2589.93,-272.041 2592.04,-272.041L2616.47,-272.041Z" style="fill:rgb(248,182,22);fill-rule:nonzero;"/>
            </g>
        </g>
    </g>
</svg>
